<?xml version="1.0" standalone="no"?>
<!DOCTYPE svg PUBLIC "-//W3C//DTD SVG 20010904//EN"
 "http://www.w3.org/TR/2001/REC-SVG-20010904/DTD/svg10.dtd">
<svg version="1.0" xmlns="http://www.w3.org/2000/svg"
 width="520.000000pt" height="520.000000pt" viewBox="0 0 520.000000 520.000000"
 preserveAspectRatio="xMidYMid meet">
<metadata>
Created by potrace 1.11, written by Peter Selinger 2001-2013
</metadata>
<g transform="translate(0.000000,520.000000) scale(0.100000,-0.100000)"
fill="#000000" stroke="none">
<path d="M3888 4723 c-21 -10 -33 -11 -48 -3 -16 8 -24 6 -40 -10 -11 -11 -19
-24 -16 -28 2 -4 -7 -8 -21 -9 -18 -1 -22 2 -14 10 23 23 20 24 -62 30 -43 3
-50 1 -61 -21 -8 -16 -23 -26 -40 -28 -24 -2 -26 -1 -14 14 12 15 11 16 -4 3
-10 -7 -18 -19 -18 -27 0 -7 -10 -30 -22 -51 -16 -27 -24 -33 -26 -21 -2 9 2
26 7 37 6 11 11 23 11 28 -1 13 -40 -41 -40 -54 0 -7 -4 -13 -10 -13 -13 0
-13 -36 0 -61 7 -13 7 -19 0 -19 -5 0 -10 5 -10 12 0 6 -3 8 -6 5 -4 -4 -1
-14 7 -24 12 -15 12 -16 -4 -10 -19 7 -52 -15 -40 -27 4 -3 2 -6 -4 -6 -6 0
-14 -7 -17 -16 -3 -8 -2 -12 4 -9 16 10 53 -34 44 -53 -6 -14 -8 -14 -11 6 -5
25 -7 26 -32 11 -24 -16 -72 -4 -65 16 5 11 0 14 -17 13 -23 -3 -38 -16 -75
-63 -8 -11 -12 -14 -8 -6 5 11 3 13 -10 8 -10 -4 -21 -7 -26 -7 -4 0 -13 -13
-20 -30 -15 -36 -2 -75 36 -111 17 -16 21 -26 13 -35 -5 -7 -12 -25 -15 -41
-3 -15 -10 -30 -15 -31 -6 -3 -6 -9 1 -17 7 -9 8 -15 1 -19 -6 -4 -8 -13 -4
-21 6 -17 -13 -45 -31 -45 -6 0 -2 7 8 15 18 13 18 15 3 15 -34 0 -57 -92 -30
-122 20 -22 11 -46 -24 -63 -12 -6 -29 -17 -39 -25 -16 -14 -16 -13 -6 7 7 12
20 27 30 32 13 8 7 10 -30 11 -25 0 -48 4 -50 10 -5 14 -99 25 -106 12 -13
-20 -72 -19 -72 2 0 14 -37 29 -52 20 -14 -9 -9 -24 6 -18 8 3 17 0 21 -6 5
-9 -11 -10 -61 -6 -38 3 -81 6 -96 6 -17 1 -28 6 -28 14 0 8 -14 15 -35 18
-29 3 -34 1 -30 -12 5 -15 -6 -16 -102 -13 -60 2 -118 9 -129 15 -15 7 -28 7
-43 -2 -29 -15 -290 -3 -311 15 -8 8 -53 17 -100 20 -47 4 -91 12 -98 18 -7 5
-31 7 -55 3 -23 -3 -118 -6 -212 -6 -197 0 -215 0 -197 7 10 4 10 8 1 19 -14
18 -30 18 -23 1 3 -10 -20 -13 -108 -12 -112 0 -128 4 -140 37 -10 24 -45 26
-112 6 -32 -9 -66 -14 -75 -10 -14 6 -60 8 -86 3 -5 -2 -1 -6 10 -11 19 -8 19
-8 1 -15 -11 -5 -29 -2 -48 9 -16 10 -35 15 -43 12 -8 -3 -17 -1 -20 3 -3 5
-14 7 -25 4 -15 -4 -20 0 -21 13 0 16 -2 15 -10 -4 -5 -13 -13 -20 -19 -17 -6
4 -8 10 -5 15 7 11 -30 19 -46 9 -8 -5 -24 -9 -37 -9 -12 0 -25 -6 -28 -14 -3
-8 -12 -12 -20 -9 -11 4 -12 9 -3 19 8 9 8 14 1 14 -6 0 -13 -4 -16 -9 -3 -4
-32 -11 -63 -15 -65 -7 -89 -18 -78 -36 4 -7 -5 -5 -24 4 -22 12 -31 24 -31
41 0 13 -6 27 -12 32 -18 11 -78 12 -78 1 0 -5 4 -6 10 -3 5 3 10 -1 10 -10 0
-13 -9 -16 -48 -13 -26 2 -53 7 -59 11 -7 5 -29 5 -48 1 l-35 -6 0 -273 c1
-223 4 -275 15 -285 8 -6 19 -9 25 -5 11 7 85 -34 76 -42 -2 -3 -30 4 -61 15
l-56 20 3 -31 3 -31 114 -3 c103 -3 115 -2 131 17 9 11 21 20 26 20 4 0 3 -5
-4 -12 -20 -20 -15 -23 40 -25 45 -2 54 1 76 25 l24 27 -6 -27 c-6 -27 6 -39
19 -18 8 12 58 9 67 -5 5 -6 8 -6 8 3 0 7 13 12 31 12 17 0 28 4 24 10 -8 13
8 13 22 -1 5 -5 33 -11 62 -11 29 -1 51 -6 51 -12 0 -6 4 -5 9 3 6 9 24 12 59
10 27 -2 48 0 45 4 -3 5 4 4 16 -2 15 -9 27 -9 41 -1 14 7 20 7 20 0 0 -5 7
-10 16 -10 8 0 12 5 9 10 -8 12 5 13 24 1 8 -5 24 -6 37 -1 12 5 25 6 29 2 9
-9 235 -9 235 0 0 4 12 3 26 -2 33 -13 34 -13 28 5 -5 12 4 15 50 15 31 0 56
5 56 10 0 6 -9 10 -20 10 -13 0 -20 7 -20 21 0 18 3 17 33 -10 36 -35 36 -35
71 -21 17 6 26 6 26 0 0 -6 7 -10 15 -10 8 0 15 -4 15 -10 0 -5 11 -10 24 -10
14 0 28 5 31 10 3 6 11 10 16 10 6 0 7 -4 4 -10 -4 -6 8 -10 30 -10 22 0 34 4
30 10 -3 5 1 10 10 10 9 0 13 -4 10 -10 -4 -6 9 -10 32 -9 30 0 34 2 18 9 -18
8 -17 9 8 9 16 1 26 -3 22 -9 -4 -6 7 -10 24 -10 17 0 31 5 31 10 0 6 16 10
35 10 19 0 35 5 35 11 0 6 -8 8 -18 5 -11 -4 -36 1 -58 11 -21 9 -43 17 -49
18 -5 1 -12 3 -15 4 -3 2 -23 5 -44 7 -50 4 -68 21 -32 30 14 3 58 -1 97 -10
90 -20 90 -20 80 7 -5 12 -14 21 -21 19 -7 -1 -18 2 -26 9 -7 6 -18 8 -24 4
-5 -3 -10 -2 -10 3 0 5 11 14 24 22 32 17 370 10 388 -8 8 -8 52 -12 130 -12
114 0 118 1 108 19 -5 11 -10 22 -10 25 0 12 48 6 52 -6 3 -9 10 -8 22 5 10 9
23 14 29 10 8 -5 8 -8 -1 -11 -7 -2 -9 -9 -5 -15 4 -6 1 -8 -8 -5 -8 3 -26 0
-40 -8 l-24 -13 33 -1 c26 0 35 -5 39 -21 4 -14 11 -18 22 -13 35 14 51 16 51
5 0 -6 -9 -11 -20 -11 -18 0 -17 -4 12 -33 27 -28 37 -32 56 -26 13 5 22 5 22
-1 0 -5 7 -7 15 -4 8 4 15 1 15 -5 0 -15 -83 -14 -99 2 -11 10 -14 10 -18 0
-8 -21 -33 -15 -33 8 0 12 -5 19 -12 16 -7 -2 -12 -9 -11 -14 1 -5 -5 -10 -13
-10 -7 0 -14 4 -14 9 0 4 -4 8 -10 8 -5 0 -10 -7 -10 -15 0 -13 -4 -12 -22 4
-20 20 -44 20 -33 0 4 -5 -1 -9 -9 -9 -9 0 -16 5 -16 10 0 6 -4 10 -10 10 -5
0 -10 -7 -10 -15 0 -8 -7 -15 -15 -15 -8 0 -15 7 -15 15 0 20 -20 19 -36 -2
-13 -17 -13 -17 -14 0 0 9 -6 17 -14 17 -19 0 -33 -23 -18 -28 7 -2 10 -8 6
-13 -6 -10 394 -12 433 -3 15 4 20 11 16 22 -3 13 0 12 14 -4 14 -16 22 -18
35 -10 12 7 24 7 40 -1 19 -10 79 -11 151 -5 9 1 17 9 17 17 0 8 5 15 10 15 6
0 10 -8 10 -17 0 -16 9 -18 75 -15 47 2 75 -1 75 -8 0 -6 -42 -10 -112 -11
-62 0 -223 -3 -358 -5 -414 -6 -638 -7 -648 0 -5 3 -12 2 -16 -2 -4 -4 -62 -8
-129 -8 -441 -5 -1220 -16 -1367 -20 -96 -2 -219 -5 -273 -6 -53 -2 -97 1 -97
5 0 5 -5 5 -11 1 -6 -3 -31 -6 -55 -6 l-44 1 0 -384 c0 -278 3 -385 11 -385 8
0 7 -6 -2 -17 -11 -13 -11 -17 -1 -20 14 -5 17 -33 3 -33 -6 0 -10 -97 -10
-230 -1 -168 2 -229 10 -228 6 2 14 -3 16 -10 3 -8 -1 -10 -11 -6 -14 6 -16
-23 -16 -280 0 -184 4 -286 10 -286 6 0 10 -5 10 -11 0 -5 -4 -8 -9 -5 -5 4
-10 -57 -10 -144 -1 -107 2 -150 10 -150 6 0 9 6 6 13 -3 8 3 13 14 13 25 0
24 -11 -5 -33 l-24 -19 1 -295 c1 -161 3 -286 5 -276 2 9 8 15 13 11 6 -3 4
-15 -6 -30 -12 -19 -15 -46 -13 -122 2 -60 7 -95 13 -92 6 3 9 11 9 17 -1 7 3
13 8 13 6 0 8 -11 6 -25 -6 -28 -6 -28 76 -11 42 9 62 18 67 32 7 17 8 16 8
-5 1 -22 2 -23 19 -8 12 11 148 57 169 57 10 0 1 -30 -9 -31 -7 -1 -20 -2 -28
-3 -8 0 -14 -7 -13 -13 2 -7 -13 -20 -33 -28 -46 -19 -60 -19 -44 0 15 18 9
19 -24 4 -14 -7 -27 -19 -29 -28 -3 -10 -5 -7 -6 7 0 13 -5 21 -11 17 -5 -3
-7 -12 -3 -20 4 -11 1 -13 -13 -8 -14 5 -16 3 -11 -12 6 -15 5 -16 -7 -6 -9 7
-17 8 -20 2 -7 -10 -25 -9 -43 2 -16 10 -33 1 -33 -17 0 -8 -10 -20 -22 -28
-18 -12 -22 -26 -26 -97 -4 -64 -1 -85 9 -93 11 -7 11 -11 1 -15 -6 -2 -12
-13 -12 -24 0 -18 9 -19 141 -19 80 0 138 4 135 9 -3 5 1 11 9 15 8 3 14 0 12
-7 -1 -8 15 -12 51 -13 28 -1 52 2 52 7 0 5 6 9 13 9 7 0 13 9 14 20 2 17 -4
20 -39 20 -35 0 -39 2 -28 15 7 8 17 15 23 15 6 0 19 7 29 17 11 10 18 12 18
4 0 -6 -7 -14 -15 -17 -23 -9 -18 -26 6 -19 15 5 19 4 15 -4 -4 -6 -2 -11 3
-11 6 0 11 5 11 11 0 17 62 2 77 -18 12 -15 18 -11 14 10 -1 4 9 2 21 -4 l23
-12 -23 -10 c-17 -8 -26 -6 -40 7 -18 16 -54 17 -68 3 -8 -7 8 -10 41 -8 17 2
18 0 5 -9 -12 -9 -10 -10 9 -5 19 6 23 4 18 -9 -6 -15 -3 -15 30 -1 20 9 39
12 42 7 3 -5 18 -12 32 -15 19 -5 31 -1 44 13 10 11 25 20 34 20 14 -1 14 -2
-2 -14 -24 -18 -21 -26 8 -26 18 0 23 4 19 15 -4 8 -2 15 4 15 6 0 17 3 25 6
12 4 14 0 10 -15 -5 -20 -3 -20 400 -21 314 0 407 3 410 13 4 9 6 9 6 0 1 -17
122 -18 139 -1 9 9 12 9 12 0 0 -16 47 -15 54 1 5 9 7 9 12 0 4 -9 36 -13 109
-13 l103 0 5 27 c3 16 1 30 -4 31 -6 3 -6 9 -1 15 11 15 33 166 47 331 3 39
17 104 30 145 21 64 62 289 64 341 0 8 5 49 11 90 6 41 8 84 6 95 -3 11 4 31
14 45 19 24 19 24 13 2 -3 -12 0 -29 7 -37 8 -10 9 -28 5 -57 -5 -24 -9 -74
-10 -113 -2 -62 -10 -194 -20 -340 -6 -86 -19 -131 -44 -154 -9 -9 -11 -12 -4
-7 16 10 17 1 3 -25 -9 -15 -7 -19 7 -19 14 -1 11 -7 -13 -28 -22 -19 -30 -34
-28 -49 3 -15 -1 -23 -10 -23 -8 0 -13 -12 -14 -32 0 -18 -1 -43 -2 -55 0 -12
-5 -34 -10 -48 -7 -17 -7 -24 0 -20 6 4 7 -2 1 -17 -4 -13 -6 -29 -4 -35 3 -7
-1 -13 -7 -13 -9 0 -9 -5 1 -17 10 -11 10 -14 2 -9 -8 4 -13 1 -13 -8 0 -14
31 -16 256 -16 l256 0 -6 25 c-4 14 -2 34 4 45 8 15 8 20 -2 20 -7 0 -13 11
-13 25 0 14 4 25 9 25 4 0 6 7 2 15 -3 8 -1 15 5 15 5 0 2 12 -8 28 l-17 27
22 -19 c19 -17 22 -17 22 -3 0 10 -4 17 -9 17 -12 0 -18 40 -11 70 4 14 3 33
-2 42 -5 12 -5 18 2 18 5 0 10 11 10 25 0 16 -6 25 -16 25 -13 0 -14 3 -4 15
6 8 9 19 5 25 -3 5 -2 10 4 10 12 0 3 32 -12 41 -5 4 -5 24 1 50 l10 44 0 -40
c0 -22 5 -53 12 -70 l12 -30 15 38 c14 34 16 36 29 20 9 -13 13 -14 14 -4 0 7
6 11 13 8 8 -3 13 7 14 31 1 19 6 38 11 41 12 8 24 71 13 71 -15 0 -20 41 -9
66 6 13 14 24 18 24 4 0 5 13 2 28 -6 40 37 89 79 90 21 0 28 -3 22 -9 -6 -6
-9 -27 -7 -47 l3 -37 -13 40 c-7 22 -19 40 -26 40 -22 0 -48 -62 -46 -113 1
-44 3 -47 28 -47 24 1 26 -2 22 -30 -2 -16 -7 -48 -10 -70 -3 -22 -7 -51 -10
-65 -3 -14 -7 -37 -9 -51 -2 -14 -9 -38 -15 -54 -6 -15 -8 -30 -6 -33 3 -2 -1
-20 -9 -39 -20 -46 -19 -50 7 -59 22 -7 22 -7 -7 -30 -23 -18 -27 -26 -17 -33
10 -6 10 -10 -2 -20 -17 -14 -32 2 -20 22 5 8 3 8 -9 -2 -9 -7 -14 -17 -11
-22 3 -5 0 -18 -7 -30 -10 -19 -9 -21 6 -16 9 4 19 7 21 7 3 0 2 4 -1 10 -3 5
1 10 9 10 24 0 30 -22 10 -37 -12 -9 -15 -16 -8 -21 11 -7 11 -14 1 -84 -5
-32 -3 -38 13 -38 13 0 22 12 30 38 21 68 43 113 50 101 4 -6 2 -23 -6 -38 -7
-14 -16 -43 -19 -63 l-7 -38 910 0 910 0 1 33 c4 82 7 106 11 110 3 3 5 38 4
79 0 40 1 67 3 61 10 -29 19 -9 19 45 1 134 8 231 17 225 5 -3 6 4 1 18 -10
33 -7 103 5 107 7 2 8 10 2 21 -6 10 -8 26 -6 37 2 10 4 34 4 52 1 17 5 32 10
32 5 0 7 -14 4 -31 -2 -17 1 -37 9 -47 11 -13 11 -14 -1 -7 -11 6 -12 2 -7
-21 4 -16 10 -49 13 -74 3 -25 7 -47 9 -49 2 -2 -1 -12 -6 -21 -5 -10 -12 -76
-15 -147 -3 -72 -8 -141 -11 -154 -3 -13 -7 -55 -10 -94 -3 -38 -8 -72 -12
-75 -4 -3 -8 -26 -9 -52 l-3 -48 114 0 c114 0 114 0 120 25 4 14 4 30 1 35 -3
5 -1 12 5 15 6 4 10 3 9 -2 -1 -4 -1 -23 0 -40 l1 -33 180 0 180 0 0 1135 c0
638 -4 1135 -9 1135 -5 0 -19 15 -32 34 -13 19 -32 37 -43 40 -16 4 -17 8 -7
20 8 10 9 16 1 21 -5 3 -10 1 -10 -6 0 -6 -10 0 -21 15 -16 20 -19 30 -11 38
9 9 17 7 31 -6 30 -28 49 -15 20 14 l-24 23 35 -20 c66 -37 72 -28 69 108 -1
74 -6 119 -13 119 -6 0 -5 5 2 12 9 9 12 75 12 235 0 194 -2 222 -15 217 -8
-4 -15 -2 -15 4 0 5 7 12 15 16 13 4 15 31 14 163 -1 87 -3 150 -6 141 -2 -10
-8 -18 -13 -18 -5 0 -7 7 -4 15 4 8 3 22 0 30 -4 12 -10 14 -25 5 -23 -12
-317 -19 -295 -7 8 5 42 8 76 8 68 0 75 8 7 10 -24 1 -54 8 -66 15 -29 18 -37
18 -29 -2 3 -8 2 -12 -4 -9 -6 3 -10 13 -10 21 0 8 -5 12 -10 9 -6 -4 -7 -11
-3 -18 3 -6 -8 -1 -25 12 -18 12 -32 24 -32 27 0 2 74 3 165 2 91 0 168 2 172
5 10 11 83 8 83 -3 0 -19 16 -10 17 10 2 18 -4 20 -48 20 -28 0 -49 -5 -49
-11 0 -7 -54 -10 -162 -9 -216 2 -232 7 -190 53 16 19 16 20 -5 9 -17 -9 -22
-9 -27 4 -3 9 -3 21 1 26 3 7 1 8 -5 4 -7 -4 -12 -1 -12 6 1 17 30 56 30 39 0
-7 5 -9 10 -6 6 4 8 10 5 15 -7 12 74 17 87 5 8 -7 9 -5 5 8 -4 9 -3 17 0 17
4 0 15 -8 26 -17 15 -13 21 -15 24 -5 5 13 35 17 46 5 4 -3 -2 -16 -13 -28
l-21 -22 50 9 c38 7 57 5 78 -5 37 -19 165 -26 170 -10 3 8 -6 12 -24 12 -98
-1 -142 3 -153 15 -16 20 2 27 41 16 44 -13 89 -13 89 0 0 6 11 10 25 10 23 0
25 3 25 48 l0 49 -88 0 c-62 1 -98 6 -120 17 -23 12 -37 14 -50 7 -11 -6 -28
-7 -40 -4 -15 4 -22 1 -22 -10 0 -8 -7 -18 -16 -21 -8 -3 -13 -2 -10 3 7 11
-29 21 -81 21 -32 0 -46 5 -58 23 -9 12 -36 50 -61 85 -24 34 -41 62 -38 62 3
0 0 10 -8 23 -8 12 -17 47 -21 78 -5 54 -38 133 -79 192 -11 15 -21 34 -22 42
-1 8 -5 17 -8 21 -4 3 -4 12 -1 20 3 8 -2 17 -11 20 -9 3 -16 12 -16 18 0 14
-70 56 -91 56 -8 0 -27 12 -44 26 -28 24 -28 26 -6 19 18 -6 22 -4 15 6 -5 8
-9 20 -10 27 -3 17 -78 92 -93 92 -6 0 -11 10 -11 23 -1 21 -1 22 -13 2 -13
-22 -43 -27 -55 -9 -4 6 -17 16 -29 23 -20 10 -26 8 -54 -21 -28 -30 -29 -31
-13 -5 25 42 9 44 -31 4 -39 -39 -47 -35 -14 7 26 33 20 52 -21 61 -23 5 -37
2 -52 -12 -20 -16 -21 -17 -15 0 4 9 5 17 4 16 -1 -1 -14 -8 -29 -16z m116
-12 c3 -5 -3 -11 -13 -14 -14 -3 -18 -1 -14 9 6 16 19 18 27 5z m-344 -41 c-6
-11 -16 -20 -22 -20 -6 0 -3 9 7 20 10 11 20 20 22 20 2 0 -1 -9 -7 -20z m244
-22 c-3 -4 -12 -8 -20 -8 -12 0 -13 4 -3 21 9 17 13 19 19 8 5 -7 6 -17 4 -21z
m66 -22 c0 -2 -8 -10 -17 -17 -16 -13 -17 -12 -4 4 13 16 21 21 21 13z m61
-18 c-4 -12 -18 -29 -31 -37 -22 -15 -23 -15 -11 7 6 12 16 22 22 22 6 0 8 4
5 9 -5 8 0 13 21 20 1 1 -1 -9 -6 -21z m100 -36 c-5 -10 -18 -25 -28 -33 -12
-10 -11 -5 6 19 24 35 38 43 22 14z m-190 -15 c-10 -9 -11 -8 -5 6 3 10 9 15
12 12 3 -3 0 -11 -7 -18z m-412 -114 c0 -10 -14 -29 -32 -43 l-31 -25 20 35
c16 30 32 49 42 50 1 0 2 -8 1 -17z m61 -17 c-6 -6 -18 -5 -32 2 -22 10 -21
10 9 9 19 -1 28 -6 23 -11z m878 -107 c-3 -8 -7 -3 -11 10 -4 17 -3 21 5 13 5
-5 8 -16 6 -23z m-920 -23 c26 3 58 7 72 9 14 1 33 -3 44 -10 10 -8 25 -11 32
-8 8 3 14 0 14 -6 0 -6 7 -11 16 -11 8 0 12 -5 9 -10 -4 -6 -11 -8 -16 -5 -5
4 -9 2 -9 -3 0 -5 -17 -22 -37 -38 -20 -15 -33 -22 -29 -16 14 23 -8 12 -43
-20 -18 -18 -31 -26 -27 -18 7 13 6 13 -6 0 -7 -8 -26 -21 -42 -28 -20 -9 -26
-16 -18 -21 9 -5 5 -12 -13 -21 -14 -7 -25 -17 -25 -22 0 -5 -11 -13 -25 -18
-26 -10 -32 -24 -14 -35 7 -5 4 -14 -8 -28 -10 -12 -12 -17 -4 -12 11 6 13 4
8 -9 -4 -10 -3 -15 3 -11 9 6 14 -8 11 -27 0 -5 4 -8 10 -8 5 0 8 -4 4 -9 -3
-5 -1 -12 4 -16 10 -6 11 -44 1 -43 -24 4 -106 -65 -96 -81 3 -4 -1 -29 -9
-56 -20 -66 -19 -78 6 -72 15 4 19 2 15 -9 -3 -8 2 -27 11 -41 13 -19 14 -28
6 -30 -9 -3 -9 -9 -1 -22 9 -15 5 -26 -23 -61 -27 -33 -34 -51 -34 -85 0 -34
-2 -40 -10 -27 -14 24 -13 375 1 393 11 14 18 71 16 124 -3 66 -3 211 0 233 2
13 22 44 46 70 42 46 54 69 30 57 -7 -4 -4 1 6 9 11 9 17 16 13 16 -4 0 -3 9
3 20 8 16 15 18 35 10 14 -5 47 -7 73 -4z m-148 -4 c0 -4 -9 -13 -20 -20 -22
-13 -23 -12 -14 12 6 16 34 23 34 8z m-2380 -288 c0 -10 -5 -14 -16 -10 -8 3
-12 2 -9 -4 3 -6 1 -10 -4 -10 -18 0 -12 28 7 33 9 3 18 5 20 6 1 0 2 -6 2
-15z m25 -3 c3 -5 1 -12 -5 -16 -5 -3 -10 1 -10 9 0 18 6 21 15 7z m-175 -22
c0 -6 -4 -7 -10 -4 -5 3 -10 11 -10 16 0 6 5 7 10 4 6 -3 10 -11 10 -16z m95
11 c3 -5 2 -10 -4 -10 -5 0 -13 5 -16 10 -3 6 -2 10 4 10 5 0 13 -4 16 -10z
m-775 -20 c0 -5 -7 -10 -16 -10 -8 0 -12 5 -9 10 3 6 10 10 16 10 5 0 9 -4 9
-10z m-80 -10 c0 -5 -2 -10 -4 -10 -3 0 -8 5 -11 10 -3 6 -1 10 4 10 6 0 11
-4 11 -10z m3090 0 c0 -5 -5 -10 -11 -10 -5 0 -7 5 -4 10 3 6 8 10 11 10 2 0
4 -4 4 -10z m-30 -14 c0 -3 -4 -8 -10 -11 -5 -3 -10 -1 -10 4 0 6 5 11 10 11
6 0 10 -2 10 -4z m-1985 -16 c-3 -5 -10 -10 -16 -10 -5 0 -9 5 -9 10 0 6 7 10
16 10 8 0 12 -4 9 -10z m465 -5 c-7 -8 -16 -12 -21 -9 -16 9 -10 20 12 21 17
2 18 -1 9 -12z m970 -25 c0 -5 -7 -10 -16 -10 -8 0 -12 5 -9 10 3 6 10 10 16
10 5 0 9 -4 9 -10z m-1050 -20 c0 -5 -2 -10 -4 -10 -3 0 -8 5 -11 10 -3 6 -1
10 4 10 6 0 11 -4 11 -10z m133 3 c-7 -2 -19 -2 -25 0 -7 3 -2 5 12 5 14 0 19
-2 13 -5z m353 -20 c-7 -7 -26 7 -26 19 0 6 6 6 15 -2 9 -7 13 -15 11 -17z
m158 -4 c10 9 16 8 26 -4 17 -20 -10 -31 -39 -16 -11 6 -30 11 -43 12 -22 0
-22 1 -3 8 11 5 25 4 33 -1 8 -7 16 -7 26 1z m421 -1 c2 -2 -4 -9 -14 -15 -13
-8 -23 -7 -42 8 l-24 18 38 -3 c21 -2 40 -5 42 -8z m-2443 -20 c-7 -7 -12 -8
-12 -2 0 14 12 26 19 19 2 -3 -1 -11 -7 -17z m2631 1 c4 -17 3 -19 -6 -10 -6
6 -20 11 -31 12 -18 1 -17 2 4 9 14 4 26 8 26 9 1 1 4 -9 7 -20z m117 1 c12
-8 9 -10 -12 -10 -15 0 -30 5 -33 10 -8 13 25 13 45 0z m216 -9 c0 -11 -5 -17
-13 -14 -10 4 -11 9 -2 19 15 18 15 18 15 -5z m-1216 -11 c0 -5 -16 -10 -36
-10 -21 0 -33 4 -29 10 3 6 19 10 36 10 16 0 29 -4 29 -10z m940 -6 c0 -14 -3
-14 -15 -4 -8 7 -15 14 -15 16 0 2 7 4 15 4 8 0 15 -7 15 -16z m47 0 c-3 -3
-12 -4 -19 -1 -8 3 -5 6 6 6 11 1 17 -2 13 -5z m1828 -4 c3 -5 2 -10 -4 -10
-5 0 -13 5 -16 10 -3 6 -2 10 4 10 5 0 13 -4 16 -10z m-2020 -10 c4 -6 -13
-10 -44 -10 -28 0 -51 5 -51 10 0 6 20 10 44 10 25 0 48 -4 51 -10z m92 -6
c-3 -3 -12 -4 -19 -1 -8 3 -5 6 6 6 11 1 17 -2 13 -5z m2198 -4 c3 -5 1 -10
-4 -10 -6 0 -11 5 -11 10 0 6 2 10 4 10 3 0 8 -4 11 -10z m-3391 -52 c3 -21 4
-38 2 -38 -3 0 -12 -3 -20 -6 -14 -5 -15 -2 -7 19 6 16 6 27 1 29 -5 2 -7 13
-3 26 8 30 20 17 27 -30z m3289 41 c-8 -8 -16 -8 -30 0 -16 9 -14 10 12 11 21
0 26 -3 18 -11z m-3453 -19 c0 -5 -4 -10 -10 -10 -5 0 -10 5 -10 10 0 6 5 10
10 10 6 0 10 -4 10 -10z m70 2 c0 -4 -11 -9 -25 -10 -14 -1 -25 3 -25 8 0 6
11 10 25 10 14 0 25 -4 25 -8z m670 -8 c0 -2 -7 -4 -15 -4 -8 0 -15 4 -15 10
0 5 7 7 15 4 8 -4 15 -8 15 -10z m-460 -4 c0 -5 -16 -9 -35 -7 -45 3 -45 17 0
17 19 0 35 -4 35 -10z m497 4 c-3 -3 -12 -4 -19 -1 -8 3 -5 6 6 6 11 1 17 -2
13 -5z m-437 -34 c0 -5 -10 -10 -22 -9 -22 0 -22 1 -3 9 11 5 21 9 23 9 1 1 2
-3 2 -9z m85 0 c3 -5 0 -12 -5 -15 -14 -8 -60 2 -60 14 0 11 58 12 65 1z m284
6 c-12 -10 -79 -16 -79 -6 0 5 19 10 42 10 23 0 39 -2 37 -4z m2821 -6 c0 -5
-2 -10 -4 -10 -3 0 -8 5 -11 10 -3 6 -1 10 4 10 6 0 11 -4 11 -10z m-3817 -7
c-7 -2 -19 -2 -25 0 -7 3 -2 5 12 5 14 0 19 -2 13 -5z m347 -8 c-7 -8 -17 -15
-23 -15 -6 0 -2 7 9 15 25 19 30 19 14 0z m175 -4 c0 -8 -7 -16 -15 -18 -13
-4 -13 -3 0 6 8 5 11 13 7 17 -3 4 -13 1 -22 -6 -17 -14 -31 -8 -20 10 10 15
50 8 50 -9z m1002 13 c-3 -3 -12 -4 -19 -1 -8 3 -5 6 6 6 11 1 17 -2 13 -5z
m-1117 -8 c0 -3 -4 -8 -10 -11 -5 -3 -10 -1 -10 4 0 6 5 11 10 11 6 0 10 -2
10 -4z m930 -9 c20 5 22 3 18 -21 -4 -22 -3 -24 9 -14 12 10 12 7 2 -16 -10
-20 -18 -26 -33 -22 -11 3 -25 1 -30 -4 -6 -4 -23 -6 -38 -3 -19 4 -25 9 -21
21 5 11 2 14 -10 9 -10 -4 -17 -2 -17 5 0 7 -5 6 -15 -2 -22 -18 -31 -4 -10
16 12 13 19 14 24 5 4 -7 12 -11 17 -10 25 4 44 -3 44 -16 0 -14 3 -14 30 0
17 9 30 23 30 33 0 10 -3 13 -8 7 -4 -6 -17 -12 -29 -12 -17 -1 -23 4 -23 18
0 16 3 18 18 10 10 -6 29 -7 42 -4z m63 6 c-7 -2 -19 -2 -25 0 -7 3 -2 5 12 5
14 0 19 -2 13 -5z m80 0 c-7 -2 -19 -2 -25 0 -7 3 -2 5 12 5 14 0 19 -2 13 -5z
m100 -22 c2 -9 14 -17 25 -18 12 -1 49 -9 83 -17 75 -20 83 -20 75 -1 -5 13 3
14 52 9 56 -7 70 2 18 12 -14 2 -49 11 -78 19 l-53 14 65 -6 c36 -3 70 -6 77
-6 7 0 10 -4 7 -9 -3 -4 0 -8 5 -8 6 0 11 6 11 13 1 18 21 -20 26 -50 3 -15 7
-30 10 -35 3 -4 -11 -8 -30 -8 -19 0 -38 5 -41 11 -16 25 -55 29 -92 9 -22
-12 -46 -17 -60 -14 -13 4 -29 2 -36 -4 -6 -6 -25 -8 -41 -5 l-28 6 31 13 c17
7 31 18 31 24 0 8 -6 8 -20 0 -19 -10 -106 -1 -160 17 -22 7 44 33 68 26 11
-2 23 0 26 6 5 7 -2 11 -16 11 -17 0 -19 3 -9 9 19 12 48 2 54 -18z m-2700 -8
c-7 -2 -19 -2 -25 0 -7 3 -2 5 12 5 14 0 19 -2 13 -5z m1227 -3 c0 -5 -4 -10
-10 -10 -5 0 -10 5 -10 10 0 6 5 10 10 10 6 0 10 -4 10 -10z m705 0 c3 -5 1
-10 -4 -10 -6 0 -11 5 -11 10 0 6 2 10 4 10 3 0 8 -4 11 -10z m102 4 c-3 -3
-12 -4 -19 -1 -8 3 -5 6 6 6 11 1 17 -2 13 -5z m202 -10 c-5 -6 -6 -20 -2 -30
6 -18 5 -18 -13 -3 -10 8 -32 16 -47 17 -71 5 -57 27 16 27 40 0 53 -3 46 -11z
m46 -5 c4 -11 4 -23 1 -26 -3 -4 -6 1 -6 10 0 10 -4 17 -10 17 -5 0 -10 5 -10
10 0 18 19 10 25 -11z m-1255 7 c0 -3 -4 -8 -10 -11 -5 -3 -10 -1 -10 4 0 6 5
11 10 11 6 0 10 -2 10 -4z m1067 -11 c7 -20 -6 -34 -16 -17 -5 8 -15 10 -27 5
-17 -6 -17 -5 -5 10 17 21 40 22 48 2z m-1747 -5 c0 -6 11 -8 25 -4 14 3 25 2
25 -4 0 -5 15 -10 34 -10 19 0 41 -4 49 -8 10 -6 -19 -9 -71 -8 -85 0 -122 8
-122 24 0 7 10 11 53 19 4 0 7 -4 7 -9z m1680 -1 c0 -4 -13 -7 -30 -7 -16 1
-30 5 -30 9 0 4 14 7 30 7 17 -1 30 -5 30 -9z m100 -10 c0 -6 -4 -7 -10 -4 -5
3 -10 11 -10 16 0 6 5 7 10 4 6 -3 10 -11 10 -16z m-2060 1 c0 -5 -4 -10 -10
-10 -5 0 -10 5 -10 10 0 6 5 10 10 10 6 0 10 -4 10 -10z m120 -6 c0 -11 -6
-15 -20 -11 -11 3 -23 1 -26 -4 -6 -11 -24 -2 -24 11 0 8 22 15 58 19 6 0 12
-6 12 -15z m380 -15 c0 -14 -17 -10 -23 5 -4 10 -1 13 9 9 7 -3 14 -9 14 -14z
m-279 -4 c19 -8 27 -14 19 -14 -14 0 -72 28 -59 29 4 0 22 -7 40 -15z m429 5
c0 -5 -4 -10 -9 -10 -6 0 -13 5 -16 10 -3 6 1 10 9 10 9 0 16 -4 16 -10z m475
0 c3 -5 1 -10 -4 -10 -6 0 -11 5 -11 10 0 6 2 10 4 10 3 0 8 -4 11 -10z m-400
-10 c-3 -5 -13 -10 -21 -10 -8 0 -12 5 -9 10 3 6 13 10 21 10 8 0 12 -4 9 -10z
m808 -1 c-8 -8 -16 -8 -30 0 -16 9 -14 10 12 11 21 0 26 -3 18 -11z m1054 5
c13 -4 21 -10 18 -14 -6 -10 -55 0 -55 11 0 10 7 11 37 3z m1013 1 c0 -3 -9
-25 -21 -50 -11 -24 -18 -49 -14 -55 3 -5 -1 -13 -9 -16 -9 -3 -16 -14 -16
-24 0 -28 -25 -43 -49 -30 -26 14 -27 40 -2 40 14 0 28 15 44 48 32 64 50 92
59 92 5 0 8 -2 8 -5z m-1360 -15 c0 -5 -4 -10 -10 -10 -5 0 -10 5 -10 10 0 6
5 10 10 10 6 0 10 -4 10 -10z m-1636 -12 c48 1 63 -2 78 -18 21 -23 17 -25
-15 -9 -12 7 -49 13 -84 13 -38 1 -67 7 -75 15 -11 11 -9 12 12 5 14 -5 52 -7
84 -6z m166 -8 c5 8 12 11 17 7 8 -9 -15 -27 -34 -27 -7 0 -13 4 -13 10 0 5
-7 7 -15 4 -8 -4 -15 -2 -15 3 0 20 14 22 32 6 16 -15 21 -15 28 -3z m729 11
c9 -6 10 -11 2 -15 -13 -8 -31 1 -31 15 0 11 11 11 29 0z m-1314 -9 c-8 -8
-78 -20 -91 -15 -32 12 -10 23 41 21 30 -1 52 -4 50 -6z m805 -11 c17 -5 -31
-21 -62 -21 -24 0 -38 -5 -38 -12 0 -7 -5 -5 -11 5 -5 9 -8 21 -5 26 5 7 93 8
116 2z m2020 -61 c-1 -12 -3 -12 -11 2 -5 10 -16 15 -24 12 -11 -5 -15 2 -15
27 l1 34 24 -30 c14 -16 25 -37 25 -45z m-1950 50 c0 -5 -9 -10 -20 -10 -11 0
-20 5 -20 10 0 6 9 10 20 10 11 0 20 -4 20 -10z m290 -5 c0 -6 -32 -9 -80 -6
-78 3 -80 2 -80 -20 -1 -20 -2 -22 -10 -7 -6 9 -7 24 -4 33 5 13 20 15 90 13
48 -2 84 -7 84 -13z m1115 6 c1 -1 1 -10 2 -21 2 -21 -11 -27 -22 -10 -3 6
-19 10 -35 10 -29 0 -45 12 -33 24 5 5 85 2 88 -3z m39 -17 c9 -3 13 -10 10
-15 -8 -14 -21 -11 -28 6 -6 17 -4 18 18 9z m476 -50 c0 -2 -20 -4 -45 -4 -46
0 -62 17 -25 27 11 3 20 12 20 21 0 10 8 7 25 -12 14 -15 25 -29 25 -32z
m-2364 6 c41 -22 74 -35 76 -29 3 10 306 14 317 4 13 -14 -20 -18 -131 -16
-76 1 -118 -2 -109 -8 10 -6 10 -10 1 -16 -6 -4 -19 0 -28 8 -10 9 -31 16 -47
16 -44 1 -74 6 -81 14 -4 4 -19 7 -33 7 -21 0 -23 2 -11 10 33 21 -4 8 -46
-16 -29 -17 -52 -24 -67 -20 -13 3 -32 -1 -43 -8 -21 -15 -110 -15 -136 0 -9
5 -49 7 -88 4 -51 -4 -74 -2 -82 7 -8 10 20 13 140 13 l151 0 58 35 c32 19 64
34 72 35 8 0 47 -18 87 -40z m2034 28 c0 -11 -38 -10 -44 1 -3 5 5 8 19 7 14
0 25 -4 25 -8z m-10 -38 c51 -7 82 -18 97 -32 12 -11 26 -17 32 -13 6 3 11 2
11 -3 0 -14 -132 -14 -140 -1 -4 6 -39 15 -79 21 -39 7 -71 15 -71 19 0 14 34
28 55 24 11 -2 54 -9 95 -15z m-1255 0 c4 -6 -5 -10 -20 -10 -15 0 -24 4 -20
10 3 6 12 10 20 10 8 0 17 -4 20 -10z m-217 -27 c16 -16 16 -16 -1 -10 -10 4
-25 7 -33 7 -8 0 -14 5 -14 10 0 16 30 12 48 -7z m3712 -13 c39 0 69 -4 66 -8
-7 -11 -164 -13 -171 -2 -3 5 -12 7 -20 3 -8 -3 -15 0 -15 7 0 6 4 9 9 5 5 -3
12 -1 16 5 4 7 12 7 25 0 10 -5 51 -10 90 -10z m-1975 -10 c-7 -12 -55 -14
-55 -2 0 4 14 9 31 10 19 2 28 -2 24 -8z m125 0 c0 -5 -5 -10 -11 -10 -5 0 -7
5 -4 10 3 6 8 10 11 10 2 0 4 -4 4 -10z m-2980 -10 c0 -5 -2 -10 -4 -10 -3 0
-8 5 -11 10 -3 6 -1 10 4 10 6 0 11 -4 11 -10z m190 -10 c0 -13 -50 -13 -70 0
-11 7 -4 10 28 10 23 0 42 -4 42 -10z m2790 -12 c0 -4 -9 -8 -20 -8 -11 0 -20
4 -20 9 0 6 9 9 20 8 11 -1 20 -5 20 -9z m738 -192 c-2 -10 -7 -13 -17 -7 -8
6 -11 16 -7 27 8 21 30 4 24 -20z m39 12 c-3 -8 -6 -5 -6 6 -1 11 2 17 5 13 3
-3 4 -12 1 -19z m-293 -4 c3 -8 2 -12 -4 -9 -6 3 -10 10 -10 16 0 14 7 11 14
-7z m46 -9 c10 -12 10 -15 -4 -15 -9 0 -16 7 -16 15 0 8 2 15 4 15 2 0 9 -7
16 -15z m78 -17 c3 -13 -3 -18 -22 -18 -20 0 -26 5 -26 21 0 15 5 20 22 17 13
-2 24 -11 26 -20z m80 -1 c3 -14 -3 -17 -27 -15 -23 2 -31 7 -31 21 0 25 53
20 58 -6z m-3198 -26 c0 -13 -28 -22 -35 -11 -3 4 1 11 7 13 20 8 28 8 28 -2z
m4260 -1 c0 -5 -2 -10 -4 -10 -3 0 -8 5 -11 10 -3 6 -1 10 4 10 6 0 11 -4 11
-10z m230 -39 c0 -5 -9 -11 -20 -14 -22 -6 -28 8 -7 16 19 8 27 8 27 -2z
m-204 -16 c-21 -16 -32 -13 -21 4 3 6 14 11 23 11 15 -1 15 -2 -2 -15z m-4326
-5 c0 -5 -4 -10 -10 -10 -5 0 -10 5 -10 10 0 6 5 10 10 10 6 0 10 -4 10 -10z
m2514 -1 c-3 -5 -16 -9 -30 -9 -33 0 -24 15 10 16 14 1 23 -2 20 -7z m-464 -5
c0 -3 -7 -12 -15 -20 -16 -17 -18 -14 -9 10 6 15 24 23 24 10z m-855 -64 c3
-5 -1 -10 -10 -10 -9 0 -13 5 -10 10 3 6 8 10 10 10 2 0 7 -4 10 -10z m1320 0
c17 -7 15 -9 -12 -9 -17 -1 -35 4 -38 9 -7 12 22 12 50 0z m-675 -10 c0 -5 -4
-10 -10 -10 -5 0 -10 5 -10 10 0 6 5 10 10 10 6 0 10 -4 10 -10z m369 -4 c8
-9 8 -16 2 -20 -6 -4 -15 3 -21 14 -12 23 2 27 19 6z m-834 -6 c3 -5 -1 -10
-10 -10 -9 0 -13 5 -10 10 3 6 8 10 10 10 2 0 7 -4 10 -10z m-655 -30 c0 -5
-5 -10 -11 -10 -5 0 -7 5 -4 10 3 6 8 10 11 10 2 0 4 -4 4 -10z m1315 0 c-3
-5 -10 -10 -16 -10 -5 0 -9 5 -9 10 0 6 7 10 16 10 8 0 12 -4 9 -10z m495 -22
c0 -5 -11 -8 -24 -8 -54 0 -32 -43 27 -53 30 -5 38 -3 34 7 -4 9 3 14 19 14
14 0 22 -3 19 -6 -8 -8 26 -42 42 -42 8 0 12 4 9 8 -3 5 1 9 9 9 10 0 8 -11
-8 -43 -20 -39 -26 -43 -59 -44 -31 0 -35 3 -31 19 7 29 -15 64 -38 58 -10 -3
-22 0 -26 6 -4 7 -9 2 -13 -13 -4 -17 -1 -29 9 -37 10 -8 11 -12 4 -13 -6 0
-18 8 -25 18 -7 9 -17 18 -23 19 -5 1 -17 4 -25 7 -9 4 -24 0 -35 -8 -20 -15
-20 -15 0 -16 17 0 18 -2 5 -11 -12 -9 -10 -10 9 -6 34 8 71 -9 71 -33 0 -25
-22 -22 -34 5 -8 19 -8 19 -19 -3 -7 -16 -16 -21 -29 -16 -23 7 -58 -21 -58
-47 0 -22 -16 -33 -24 -17 -3 7 -4 4 -1 -7 3 -13 -2 -25 -17 -34 -17 -11 -20
-11 -16 1 3 7 9 24 13 38 7 25 7 25 -9 3 -9 -11 -20 -32 -25 -47 -8 -20 -7
-24 4 -19 22 8 18 -10 -5 -30 -19 -16 -20 -16 -20 11 0 19 -5 29 -15 29 -8 0
-15 -5 -16 -11 0 -6 -2 -20 -5 -31 -2 -11 -7 -50 -11 -87 -6 -67 -26 -87 -21
-23 1 19 -1 37 -4 41 -11 10 -72 12 -85 1 -9 -6 -13 -6 -13 1 0 10 -44 3 -82
-13 -28 -11 -64 -103 -78 -195 -12 -79 -16 -117 -19 -214 0 -22 -4 -36 -8 -33
-3 4 -8 73 -9 153 -2 110 -7 151 -18 163 -7 9 -17 35 -21 59 -7 41 -19 55 -25
30 -3 -16 -13 -228 -12 -280 0 -25 -5 -39 -17 -43 -13 -5 -14 -4 -3 6 16 17
15 29 -2 29 -8 0 -14 6 -13 13 2 61 -12 74 -33 30 -20 -42 -20 -92 -1 -104 13
-8 11 -9 -8 -3 -16 4 -21 3 -16 -5 4 -7 3 -17 -2 -24 -17 -22 -32 -91 -33
-152 -3 -128 1 -239 8 -228 4 6 7 -24 7 -67 0 -43 -2 -77 -4 -74 -12 11 -38
293 -35 370 2 61 1 79 -5 56 -5 -18 -9 -72 -10 -121 -2 -100 -7 -135 -23 -165
-13 -23 -17 -36 -24 -81 -18 -124 -23 -178 -19 -186 3 -4 -1 -22 -10 -38 -8
-16 -13 -36 -10 -43 3 -8 -6 -18 -26 -25 -21 -8 -28 -16 -23 -25 5 -9 4 -10
-5 -2 -8 8 -5 37 13 120 13 60 27 135 31 167 l7 57 -31 0 c-17 0 -31 -5 -31
-11 0 -5 -4 -8 -8 -5 -4 2 -50 -6 -101 -20 -51 -13 -102 -24 -112 -24 -11 0
-31 -7 -44 -16 -14 -9 -32 -14 -40 -10 -8 3 -15 1 -15 -4 0 -6 -11 -10 -24
-10 -13 0 -40 -7 -60 -15 -37 -16 -39 -14 -37 20 1 18 0 18 -11 -3 -7 -13 -17
-21 -26 -17 -8 3 -16 -3 -19 -15 -3 -11 -10 -20 -15 -20 -6 0 -8 -7 -4 -15 6
-17 -12 -23 -86 -29 -49 -4 -65 7 -27 19 13 4 18 12 15 22 -4 9 -1 22 5 29 9
11 8 14 -4 14 -9 0 -19 -4 -22 -10 -3 -5 -17 -10 -30 -10 -30 0 -39 -26 -14
-43 17 -12 17 -16 5 -26 -8 -7 -26 -14 -39 -15 -18 -2 -23 1 -20 13 3 13 -3
16 -29 16 -25 0 -33 5 -36 20 -5 23 -22 37 -39 30 -7 -2 -10 2 -6 11 3 7 11
14 19 14 8 0 14 5 14 11 0 7 -9 9 -21 6 -13 -3 -28 1 -37 9 -13 13 -11 14 14
8 25 -6 27 -5 16 8 -11 14 -8 15 20 8 19 -4 32 -12 30 -19 -1 -7 2 -10 8 -6 6
3 8 11 5 16 -4 5 -1 9 4 9 6 0 11 4 11 9 0 4 -17 8 -37 7 -31 -1 -37 2 -35 17
2 12 -4 17 -20 18 -21 1 -21 2 -3 6 11 3 25 9 32 15 7 6 14 5 18 -2 9 -15 38
-12 32 4 -4 10 2 13 21 11 15 -1 28 -5 30 -8 6 -17 1 -27 -13 -27 -18 0 -20
-19 -2 -21 28 -3 53 -1 70 6 10 4 17 3 17 -4 0 -6 5 -11 10 -11 17 0 11 28 -7
39 -17 10 -17 10 0 11 9 0 17 -4 17 -10 0 -13 37 -13 45 -1 3 5 -2 16 -10 24
-19 20 -20 33 -1 18 9 -8 16 -8 20 -2 4 6 18 6 35 1 32 -9 42 -5 35 15 -3 7 7
17 26 24 23 8 31 8 28 -1 -2 -6 -12 -12 -22 -14 -27 -4 -32 -14 -8 -14 23 0
29 -14 12 -25 -5 -3 -10 0 -11 7 0 10 -2 10 -6 1 -2 -7 -13 -13 -24 -13 -12 0
-19 -7 -19 -18 0 -27 -20 -44 -37 -30 -10 8 -17 7 -29 -8 -15 -19 -15 -19 -9
1 5 16 4 18 -6 8 -23 -23 4 -38 42 -24 23 8 36 8 45 0 7 -6 18 -8 24 -4 5 3
10 2 10 -4 0 -17 -19 -22 -41 -11 -19 11 -20 10 -9 -9 9 -17 15 -19 30 -11 10
5 25 7 33 5 7 -3 20 1 27 10 10 12 16 13 27 3 11 -9 16 -9 23 1 4 8 13 10 20
6 9 -5 11 -4 6 3 -4 7 -2 12 3 12 6 0 11 -4 11 -10 0 -18 29 -10 35 9 5 18 18
23 84 36 14 2 29 10 35 16 8 9 6 9 -11 0 -16 -8 -24 -8 -29 0 -3 6 -14 9 -23
6 -14 -3 -17 5 -18 50 -1 36 2 53 10 51 7 -1 25 1 41 6 19 4 32 3 36 -4 5 -8
9 -6 13 5 4 9 3 14 -1 11 -4 -2 -14 -1 -22 5 -12 7 -9 9 10 9 14 0 40 9 59 21
18 11 40 18 48 15 8 -3 12 -2 9 3 -3 5 11 11 32 13 20 3 38 1 40 -3 2 -5 13
-4 24 2 16 9 20 7 25 -10 3 -12 10 -21 15 -21 5 0 7 4 4 9 -3 5 1 12 10 15 24
9 31 7 14 -4 -10 -7 -11 -10 -2 -10 16 0 26 27 53 142 12 51 35 120 50 154 16
34 29 66 29 72 0 6 18 53 39 104 22 51 46 118 55 149 22 78 113 168 230 228
47 23 91 52 99 65 13 20 24 23 82 24 42 0 81 7 104 18 20 10 43 17 53 16 9 -2
19 2 23 8 3 5 -2 10 -12 11 -14 0 -14 2 5 9 12 5 22 17 22 25 0 9 17 33 38 54
28 28 45 37 69 36 18 0 33 -3 33 -7z m1947 6 c-3 -3 -12 -4 -19 -1 -8 3 -5 6
6 6 11 1 17 -2 13 -5z m-1902 -14 c8 -13 -5 -13 -25 0 -13 8 -13 10 2 10 9 0
20 -4 23 -10z m86 1 c6 10 9 10 9 2 0 -7 6 -13 14 -13 9 0 12 -7 9 -20 -3 -11
-13 -20 -22 -19 -10 0 -11 2 -3 6 21 8 13 23 -12 23 -37 0 -61 11 -45 21 8 4
19 3 27 -3 10 -9 16 -8 23 3z m-666 -71 c3 -5 -1 -10 -10 -10 -9 0 -13 5 -10
10 3 6 8 10 10 10 2 0 7 -4 10 -10z m2565 -10 c0 -5 -2 -10 -4 -10 -3 0 -8 5
-11 10 -3 6 -1 10 4 10 6 0 11 -4 11 -10z m-2025 -20 c-3 -5 -11 -10 -16 -10
-6 0 -7 5 -4 10 3 6 11 10 16 10 6 0 7 -4 4 -10z m-1465 -14 c0 -3 -4 -8 -10
-11 -5 -3 -10 -1 -10 4 0 6 5 11 10 11 6 0 10 -2 10 -4z m-770 -16 c0 -5 -7
-10 -16 -10 -8 0 -12 5 -9 10 3 6 10 10 16 10 5 0 9 -4 9 -10z m65 -10 c3 -5
-3 -10 -15 -10 -12 0 -18 5 -15 10 3 6 10 10 15 10 5 0 12 -4 15 -10z m962 4
c-3 -3 -12 -4 -19 -1 -8 3 -5 6 6 6 11 1 17 -2 13 -5z m-524 -30 c10 -10 -16
-30 -43 -31 l-25 -2 24 20 c25 20 34 23 44 13z m1810 -11 c-7 -2 -19 -2 -25 0
-7 3 -2 5 12 5 14 0 19 -2 13 -5z m1717 3 c0 -3 -4 -8 -10 -11 -5 -3 -10 -1
-10 4 0 6 5 11 10 11 6 0 10 -2 10 -4z m-3606 -15 c3 -5 -3 -11 -14 -14 -20
-5 -26 3 -13 16 9 10 21 9 27 -2z m-54 -5 c0 -3 -4 -8 -10 -11 -5 -3 -10 -1
-10 4 0 6 5 11 10 11 6 0 10 -2 10 -4z m155 -6 c-3 -5 -12 -10 -18 -10 -7 0
-6 4 3 10 19 12 23 12 15 0z m3579 -24 c-6 -16 -54 -28 -54 -14 0 5 10 13 23
18 31 13 37 12 31 -4z m-1979 -6 c3 -5 1 -10 -4 -10 -6 0 -11 5 -11 10 0 6 2
10 4 10 3 0 8 -4 11 -10z m2051 -4 c19 -15 19 -15 -1 -30 -24 -19 -25 -19 -49
-1 -16 12 -17 17 -6 30 16 19 31 19 56 1z m-2796 -6 c0 -5 -2 -10 -4 -10 -3 0
-8 5 -11 10 -3 6 -1 10 4 10 6 0 11 -4 11 -10z m675 -22 c-11 -36 -25 -45 -25
-17 0 27 7 39 22 39 5 0 6 -10 3 -22z m-1740 2 c3 -5 1 -10 -4 -10 -6 0 -11 5
-11 10 0 6 2 10 4 10 3 0 8 -4 11 -10z m192 -17 c-9 -9 -19 -14 -23 -11 -10
10 6 28 24 28 15 0 15 -1 -1 -17z m-877 -13 c0 -5 -9 -8 -20 -7 -20 1 -25 8
-14 20 8 7 34 -3 34 -13z m-350 6 c0 -3 -4 -8 -10 -11 -5 -3 -10 -1 -10 4 0 6
5 11 10 11 6 0 10 -2 10 -4z m2860 0 c0 -3 -4 -8 -10 -11 -5 -3 -10 -1 -10 4
0 6 5 11 10 11 6 0 10 -2 10 -4z m-1557 -21 c-3 -9 -8 -14 -10 -11 -3 3 -2 9
2 15 9 16 15 13 8 -4z m167 -21 c0 -8 -5 -12 -10 -9 -6 4 -8 11 -5 16 9 14 15
11 15 -7z m282 -14 c-17 -18 -20 -19 -32 -5 -11 13 -10 15 2 10 8 -3 21 1 28
10 7 8 15 13 17 11 3 -3 -4 -14 -15 -26z m177 4 c-17 -21 -31 -17 -17 5 7 11
16 17 20 14 5 -2 4 -11 -3 -19z m-1523 -31 c-4 -4 -11 -1 -16 7 -8 13 -10 13
-10 1 0 -10 -3 -12 -10 -5 -6 6 -8 19 -4 28 6 16 8 16 27 -3 12 -11 18 -24 13
-28z m2407 32 c-3 -9 -8 -14 -10 -11 -3 3 -2 9 2 15 9 16 15 13 8 -4z m2097
-15 c0 -5 -2 -10 -4 -10 -3 0 -8 5 -11 10 -3 6 -1 10 4 10 6 0 11 -4 11 -10z
m-4020 -10 c0 -5 -4 -10 -10 -10 -5 0 -10 5 -10 10 0 6 5 10 10 10 6 0 10 -4
10 -10z m40 0 c0 -5 -2 -10 -4 -10 -3 0 -8 5 -11 10 -3 6 -1 10 4 10 6 0 11
-4 11 -10z m3960 -5 c0 -2 -6 -5 -13 -8 -8 -3 -14 1 -14 8 0 7 6 11 14 8 7 -3
13 -6 13 -8z m-2943 -11 c-3 -3 -12 -4 -19 -1 -8 3 -5 6 6 6 11 1 17 -2 13 -5z
m-2062 -14 c3 -5 1 -10 -4 -10 -6 0 -11 5 -11 10 0 6 2 10 4 10 3 0 8 -4 11
-10z m483 -32 c14 -16 13 -18 -1 -18 -10 0 -17 7 -17 15 0 8 -7 15 -16 15 -8
0 -13 -4 -10 -9 3 -5 -1 -11 -9 -15 -10 -4 -15 1 -15 15 0 22 42 44 49 25 2
-6 10 -19 19 -28z m1632 33 c0 -6 -4 -13 -10 -16 -5 -3 -10 1 -10 9 0 9 5 16
10 16 6 0 10 -4 10 -9z m25 -1 c3 -5 1 -10 -4 -10 -6 0 -11 5 -11 10 0 6 2 10
4 10 3 0 8 -4 11 -10z m2888 3 c2 -5 -7 -18 -20 -30 -17 -16 -23 -18 -23 -8 0
8 5 15 10 15 6 0 10 7 10 15 0 15 16 21 23 8z m-4508 -13 c-3 -5 -13 -10 -21
-10 -8 0 -14 5 -14 10 0 6 9 10 21 10 11 0 17 -4 14 -10z m-490 -21 c-4 -5 -1
-9 4 -9 6 0 11 -4 11 -9 0 -6 -9 -9 -20 -8 -19 1 -27 26 -14 40 10 9 25 -3 19
-14z m2005 11 c0 -5 -4 -10 -10 -10 -5 0 -10 5 -10 10 0 6 5 10 10 10 6 0 10
-4 10 -10z m2932 -48 c15 -14 25 -29 22 -34 -9 -14 -22 -9 -29 13 -4 11 -18
24 -31 29 -13 5 -24 14 -24 19 0 15 31 1 62 -27z m-4885 22 c-3 -3 -12 -4 -19
-1 -8 3 -5 6 6 6 11 1 17 -2 13 -5z m1783 -8 c0 -2 -7 -7 -16 -10 -8 -3 -12
-2 -9 4 6 10 25 14 25 6z m-223 -12 c-3 -3 -12 -4 -19 -1 -8 3 -5 6 6 6 11 1
17 -2 13 -5z m-1110 -30 c-3 -3 -12 -4 -19 -1 -8 3 -5 6 6 6 11 1 17 -2 13 -5z
m702 -8 c-12 -10 -69 -24 -69 -16 0 5 8 11 18 13 22 6 57 8 51 3z m786 -66 c3
-5 1 -10 -4 -10 -6 0 -11 5 -11 10 0 6 2 10 4 10 3 0 8 -4 11 -10z m-1993 -32
c-7 -7 -12 -8 -12 -2 0 14 12 26 19 19 2 -3 -1 -11 -7 -17z m1108 2 c0 -5 -5
-10 -11 -10 -5 0 -7 5 -4 10 3 6 8 10 11 10 2 0 4 -4 4 -10z m-696 -25 c-4 -8
-11 -15 -16 -15 -6 0 -5 6 2 15 7 8 14 15 16 15 2 0 1 -7 -2 -15z m1256 -5 c0
-5 -7 -10 -16 -10 -8 0 -12 5 -9 10 3 6 10 10 16 10 5 0 9 -4 9 -10z m-375
-19 c3 -5 1 -12 -5 -16 -5 -3 -10 1 -10 9 0 18 6 21 15 7z m-1037 -22 c2 -11
-5 -14 -25 -13 -47 3 -49 4 -28 20 24 18 49 15 53 -7z m-223 1 c-3 -5 -12 -10
-18 -10 -7 0 -6 4 3 10 19 12 23 12 15 0z m1140 -10 c-3 -5 -11 -10 -16 -10
-6 0 -7 5 -4 10 3 6 11 10 16 10 6 0 7 -4 4 -10z m-367 -21 c3 -12 2 -12 -6 0
-6 8 -15 10 -22 6 -9 -5 -11 -4 -6 4 10 15 28 10 34 -10z m-623 -9 c-4 -6 6
-7 25 -4 38 8 41 -12 4 -26 -36 -14 -39 -13 -40 15 -1 14 2 25 8 25 5 0 6 -4
3 -10z m1125 -40 c0 -5 -5 -10 -11 -10 -5 0 -7 5 -4 10 3 6 8 10 11 10 2 0 4
-4 4 -10z m-470 -20 c0 -5 -4 -10 -10 -10 -5 0 -10 5 -10 10 0 6 5 10 10 10 6
0 10 -4 10 -10z m-420 -4 c0 -2 -7 -6 -15 -10 -8 -3 -15 -1 -15 4 0 6 7 10 15
10 8 0 15 -2 15 -4z m1660 -47 c0 -6 -4 -7 -10 -4 -5 3 -10 11 -10 16 0 6 5 7
10 4 6 -3 10 -11 10 -16z m194 -21 c-3 -11 0 -18 8 -18 14 0 14 -9 4 -372 -2
-92 -6 -171 -8 -175 -2 -4 -4 -27 -3 -50 0 -24 -4 -43 -8 -43 -4 0 -7 -6 -5
-12 1 -7 -2 -24 -6 -37 -6 -16 -4 -27 5 -33 10 -6 0 -8 -29 -5 -24 3 -46 8
-49 10 -2 3 2 41 11 84 8 43 18 96 21 118 3 22 10 67 15 100 17 110 30 276 33
418 0 33 4 52 9 45 4 -7 5 -21 2 -30z m-661 25 c-7 -2 -19 -2 -25 0 -7 3 -2 5
12 5 14 0 19 -2 13 -5z m-1683 -13 c0 -5 -4 -10 -10 -10 -5 0 -10 5 -10 10 0
6 5 10 10 10 6 0 10 -4 10 -10z m390 0 c0 -5 -5 -10 -11 -10 -5 0 -7 5 -4 10
3 6 8 10 11 10 2 0 4 -4 4 -10z m1250 0 c0 -5 -7 -10 -15 -10 -8 0 -15 5 -15
10 0 6 7 10 15 10 8 0 15 -4 15 -10z m-1145 -20 c-3 -5 -12 -10 -18 -10 -7 0
-6 4 3 10 19 12 23 12 15 0z m945 -28 c-20 -7 -40 7 -34 23 6 14 9 14 26 -2
12 -10 15 -19 8 -21z m735 28 c3 -5 2 -10 -4 -10 -5 0 -13 5 -16 10 -3 6 -2
10 4 10 5 0 13 -4 16 -10z m-276 -67 c-14 -17 -31 1 -22 24 4 10 9 11 19 2 11
-9 12 -15 3 -26z m-209 7 c0 -5 -7 -10 -15 -10 -8 0 -15 5 -15 10 0 6 7 10 15
10 8 0 15 -4 15 -10z m1345 -9 c-3 -6 -11 -8 -17 -5 -6 4 -5 9 3 15 16 10 23
4 14 -10z m-1501 0 c4 -5 -3 -7 -14 -4 -23 6 -26 13 -6 13 8 0 17 -4 20 -9z
m427 -1 c14 0 11 -17 -4 -23 -7 -3 -19 4 -26 15 -11 18 -11 20 4 14 9 -3 21
-6 26 -6z m-1057 -45 c-26 -18 -30 -11 -7 12 10 10 20 15 22 10 1 -4 -5 -14
-15 -22z m326 31 c0 -2 -8 -10 -17 -17 -16 -13 -17 -12 -4 4 13 16 21 21 21
13z m-1200 -16 c0 -5 -4 -10 -10 -10 -5 0 -10 5 -10 10 0 6 5 10 10 10 6 0 10
-4 10 -10z m1880 -15 c0 -8 -4 -15 -10 -15 -5 0 -7 7 -4 15 4 8 8 15 10 15 2
0 4 -7 4 -15z m1790 -16 c0 -10 -4 -20 -9 -23 -5 -4 -7 3 -4 14 4 15 0 20 -16
20 -11 0 -21 -5 -21 -12 0 -6 -2 -9 -5 -6 -3 3 -3 12 0 20 9 22 55 11 55 -13z
m-2036 -4 c-14 -22 -34 -34 -34 -20 0 5 42 45 47 45 2 0 -4 -11 -13 -25z
m1948 -7 c-7 -7 -12 -8 -12 -2 0 14 12 26 19 19 2 -3 -1 -11 -7 -17z m-2057 2
c3 -5 2 -10 -4 -10 -5 0 -13 5 -16 10 -3 6 -2 10 4 10 5 0 13 -4 16 -10z m319
1 c3 -5 0 -13 -7 -19 -10 -8 -13 -6 -13 9 0 20 11 25 20 10z m-1443 -34 c-12
-12 -31 0 -31 19 0 12 3 12 20 2 11 -7 16 -16 11 -21z m629 29 c0 -11 -19 -15
-25 -6 -3 5 1 10 9 10 9 0 16 -2 16 -4z m110 0 c0 -2 -7 -7 -16 -10 -8 -3 -12
-2 -9 4 6 10 25 14 25 6z m170 0 c0 -3 -4 -8 -10 -11 -5 -3 -10 -1 -10 4 0 6
5 11 10 11 6 0 10 -2 10 -4z m2241 -19 c-10 -9 -11 -8 -5 6 3 10 9 15 12 12 3
-3 0 -11 -7 -18z m-2911 3 c0 -5 -5 -10 -11 -10 -5 0 -7 5 -4 10 3 6 8 10 11
10 2 0 4 -4 4 -10z m946 -15 c0 -14 -6 -27 -13 -29 -9 -4 -9 3 -1 25 12 36 16
37 14 4z m-1609 9 c-3 -3 -12 -4 -19 -1 -8 3 -5 6 6 6 11 1 17 -2 13 -5z m503
-4 c0 -5 -8 -10 -17 -10 -15 0 -16 2 -3 10 19 12 20 12 20 0z m540 -5 c0 -2
-7 -5 -15 -9 -9 -3 -15 0 -15 9 0 9 6 12 15 9 8 -4 15 -7 15 -9z m500 -4 c0
-17 -18 -21 -24 -6 -3 9 0 15 9 15 8 0 15 -4 15 -9z m2130 -6 c0 -12 -19 -12
-23 0 -4 9 -1 12 9 8 7 -3 14 -7 14 -8z m-2113 -30 c-9 -7 -14 -15 -10 -18 3
-4 1 -7 -5 -7 -21 0 -21 17 0 40 16 17 23 20 26 10 3 -7 -3 -19 -11 -25z m423
25 c0 -14 -72 -32 -84 -20 -7 7 -2 10 15 10 13 0 31 5 39 10 19 12 30 13 30 0z
m1616 -1 c4 -8 9 -7 15 2 6 10 11 11 20 2 8 -8 6 -16 -10 -32 -12 -12 -21 -30
-21 -40 0 -11 -4 -22 -9 -26 -6 -3 -6 7 0 27 6 24 5 38 -6 55 -9 13 -11 23 -6
23 5 0 13 -5 17 -11z m-3488 -13 c-7 -8 -15 -12 -17 -11 -5 6 10 25 20 25 5 0
4 -6 -3 -14z m884 -8 c-7 -7 -12 -8 -12 -2 0 14 12 26 19 19 2 -3 -1 -11 -7
-17z m-412 2 c0 -5 -5 -10 -11 -10 -5 0 -7 5 -4 10 3 6 8 10 11 10 2 0 4 -4 4
-10z m-580 -15 c-7 -8 -18 -15 -24 -15 -6 0 -2 7 8 15 25 19 32 19 16 0z m284
0 c-4 -8 -11 -12 -16 -9 -6 4 -5 10 3 15 19 12 19 11 13 -6z m176 11 c0 -3 -4
-8 -10 -11 -5 -3 -10 -1 -10 4 0 6 5 11 10 11 6 0 10 -2 10 -4z m-220 -16 c0
-5 -5 -10 -11 -10 -5 0 -7 5 -4 10 3 6 8 10 11 10 2 0 4 -4 4 -10z m1070 -11
c0 -14 -17 -10 -23 5 -4 10 -1 13 9 9 7 -3 14 -9 14 -14z m278 3 c2 -7 -2 -10
-12 -6 -9 3 -16 11 -16 16 0 13 23 5 28 -10z m42 -4 c0 -13 -23 -5 -28 10 -2
7 2 10 12 6 9 -3 16 -11 16 -16z m-1476 -3 c4 -10 -1 -15 -14 -15 -20 0 -26
11 -13 23 10 11 20 8 27 -8z m-124 -24 c0 -3 -10 -11 -23 -17 -19 -8 -23 -7
-23 7 0 11 8 17 23 17 13 0 23 -3 23 -7z m602 -13 c-7 -7 -12 -8 -12 -2 0 14
12 26 19 19 2 -3 -1 -11 -7 -17z m74 4 c1 -7 0 -8 -3 -2 -2 5 -9 8 -14 4 -5
-3 -9 0 -9 6 0 15 23 7 26 -8z m859 8 c3 -5 1 -10 -4 -10 -6 0 -11 5 -11 10 0
6 2 10 4 10 3 0 8 -4 11 -10z m69 -5 c-4 -8 -8 -15 -10 -15 -2 0 -4 7 -4 15 0
8 4 15 10 15 5 0 7 -7 4 -15z m131 5 c3 -5 -1 -10 -9 -10 -9 0 -16 5 -16 10 0
6 4 10 9 10 6 0 13 -4 16 -10z m-1415 -10 c0 -5 -11 -10 -24 -10 -13 0 -29 -7
-36 -15 -17 -21 -24 -12 -10 14 11 22 70 31 70 11z m455 0 c-3 -5 0 -10 7 -10
8 0 7 -5 -5 -17 -9 -9 -20 -13 -24 -9 -5 5 -3 11 4 13 7 2 9 11 6 19 -3 8 0
14 7 14 6 0 8 -4 5 -10z m-281 -24 c-4 -9 -14 -16 -22 -14 -16 3 -19 23 -3 23
5 0 13 3 17 8 11 11 15 2 8 -17z m149 -12 c-5 -13 24 -27 38 -18 15 9 10 -6
-10 -32 -11 -15 -22 -20 -26 -14 -7 12 -25 13 -25 2 0 -5 10 -14 23 -20 22
-10 22 -11 -5 -11 -21 -1 -29 5 -34 24 -7 27 -19 33 -27 13 -3 -8 -6 -5 -6 5
-1 14 5 18 26 15 24 -3 28 1 30 25 1 15 -3 27 -8 27 -6 0 -7 4 -4 10 8 13 34
-11 28 -26z m107 26 c0 -5 -4 -10 -10 -10 -5 0 -10 5 -10 10 0 6 5 10 10 10 6
0 10 -4 10 -10z m910 -20 c0 -5 -4 -10 -10 -10 -5 0 -10 5 -10 10 0 6 5 10 10
10 6 0 10 -4 10 -10z m-704 -7 c-4 -4 -19 -9 -34 -10 -21 -3 -24 -1 -12 7 17
11 57 14 46 3z m692 -17 c16 -6 22 -3 22 9 0 13 4 14 21 4 14 -7 19 -17 16
-30 -3 -10 -1 -19 4 -19 5 0 9 -5 9 -11 0 -5 -6 -7 -12 -3 -10 6 -10 5 0 -8
10 -12 9 -18 -3 -28 -13 -11 -14 -10 -9 4 3 9 1 16 -5 16 -6 0 -16 -11 -21
-25 -5 -14 -16 -25 -25 -25 -14 0 -14 3 1 25 9 14 20 25 25 25 5 0 9 5 9 10 0
19 -32 10 -37 -10 -3 -11 -9 -20 -14 -20 -14 0 -11 17 6 34 8 8 15 23 15 33
-1 17 -2 17 -17 -2 -13 -16 -15 -17 -10 -2 4 9 2 17 -3 17 -6 0 -10 8 -10 18
0 10 3 13 8 6 4 -6 17 -14 30 -18z m-664 -18 c-3 -4 -19 -8 -36 -8 -27 0 -39
7 -15 9 4 0 15 8 24 16 12 13 18 14 24 4 4 -7 5 -17 3 -21z m-259 12 c-3 -5
-11 -10 -16 -10 -6 0 -7 5 -4 10 3 6 11 10 16 10 6 0 7 -4 4 -10z m75 -10
c-19 -12 -50 -13 -50 -1 0 9 50 20 60 13 2 -2 -2 -7 -10 -12z m87 -9 c0 -22
-3 -26 -12 -18 -9 9 -9 16 -1 29 6 10 11 18 12 18 0 0 1 -13 1 -29z m343 9 c0
-5 -2 -10 -4 -10 -3 0 -8 5 -11 10 -3 6 -1 10 4 10 6 0 11 -4 11 -10z m-970
-4 c0 -3 -4 -8 -10 -11 -5 -3 -10 -1 -10 4 0 6 5 11 10 11 6 0 10 -2 10 -4z
m165 -16 c4 -6 3 -10 -2 -9 -21 4 -34 -2 -27 -13 4 -7 3 -8 -4 -4 -17 10 -15
24 6 29 9 3 18 5 19 6 1 0 5 -4 8 -9z m290 -8 c-3 -3 -11 0 -18 7 -9 10 -8 11
6 5 10 -3 15 -9 12 -12z m-521 1 c-5 -5 -12 -12 -16 -18 -4 -6 -8 -2 -8 8 0 9
7 17 17 17 9 0 12 -3 7 -7z m831 -30 c14 -10 15 -14 5 -12 -8 1 -24 1 -35 0
-19 -1 -18 -3 5 -22 14 -11 20 -18 13 -15 -7 4 -19 -5 -29 -18 -14 -22 -18
-23 -30 -11 -19 19 -18 25 7 22 27 -3 33 12 15 36 -11 14 -19 15 -39 8 -20 -8
-27 -6 -31 5 -8 22 -8 23 13 17 10 -3 22 0 25 6 8 13 52 4 81 -16z m365 15 c0
-4 -9 -8 -20 -8 -11 0 -20 4 -20 8 0 4 9 8 20 8 11 0 20 -4 20 -8z m205 2 c-3
-5 -11 -10 -16 -10 -6 0 -7 5 -4 10 3 6 11 10 16 10 6 0 7 -4 4 -10z m1475
-43 c-12 -26 -23 -47 -26 -47 -2 0 3 17 12 38 9 20 18 43 21 50 3 7 7 11 9 9
2 -2 -5 -25 -16 -50z m-2895 -26 c-9 -8 -25 21 -25 44 0 16 3 14 15 -9 9 -16
13 -32 10 -35z m509 44 c-4 -9 0 -15 7 -16 31 -2 105 2 121 7 13 4 16 1 12
-11 -4 -9 -12 -14 -20 -11 -7 3 -14 0 -16 -6 -2 -6 -25 -11 -51 -12 -26 0 -47
-4 -47 -10 0 -5 -3 -7 -6 -4 -7 8 -13 61 -7 71 8 13 13 7 7 -8z m3313 -27 c-3
-7 -5 -2 -5 12 0 14 2 19 5 13 2 -7 2 -19 0 -25z m-3787 18 c0 -11 -19 -15
-25 -6 -3 5 1 10 9 10 9 0 16 -2 16 -4z m235 -6 c3 -5 1 -10 -4 -10 -6 0 -11
5 -11 10 0 6 2 10 4 10 3 0 8 -4 11 -10z m1162 4 c-3 -3 -12 -4 -19 -1 -8 3
-5 6 6 6 11 1 17 -2 13 -5z m-1467 -14 c0 -5 -5 -10 -11 -10 -5 0 -7 5 -4 10
3 6 8 10 11 10 2 0 4 -4 4 -10z m990 1 c0 -5 -9 -12 -19 -16 -26 -8 -33 -31
-14 -47 14 -11 16 -11 10 4 -3 9 0 21 7 27 15 13 29 3 18 -13 -4 -6 -7 -13 -8
-16 -11 -37 -18 -50 -25 -50 -5 0 -9 7 -9 16 0 8 -5 12 -10 9 -6 -4 -8 -15 -5
-26 4 -10 2 -19 -3 -19 -17 0 -21 13 -11 31 11 22 -1 25 -31 9 -13 -7 -21 -7
-25 0 -3 5 -1 10 4 10 6 0 11 9 11 19 0 14 6 19 20 16 13 -2 20 2 20 11 0 9
-5 12 -11 8 -7 -4 -10 -1 -7 7 3 9 16 13 35 11 17 -2 34 1 38 7 8 13 15 14 15
2z m-280 -11 c0 -5 -4 -10 -10 -10 -5 0 -10 5 -10 10 0 6 5 10 10 10 6 0 10
-4 10 -10z m2439 -34 c-9 -8 -10 -7 -5 7 3 10 7 24 7 30 1 7 3 4 6 -7 3 -10
-1 -23 -8 -30z m-3052 12 c-3 -8 -6 -5 -6 6 -1 11 2 17 5 13 3 -3 4 -12 1 -19z
m43 12 c0 -5 -4 -10 -10 -10 -5 0 -10 5 -10 10 0 6 5 10 10 10 6 0 10 -4 10
-10z m205 -8 c-3 -3 -11 0 -18 7 -9 10 -8 11 6 5 10 -3 15 -9 12 -12z m-275
-2 c0 -5 -2 -10 -4 -10 -3 0 -8 5 -11 10 -3 6 -1 10 4 10 6 0 11 -4 11 -10z
m3387 -32 c-3 -7 -5 -2 -5 12 0 14 2 19 5 13 2 -7 2 -19 0 -25z m40 17 c-4 -8
-2 -17 3 -20 6 -4 10 -14 10 -23 0 -20 -12 -7 -28 31 -10 23 -9 27 4 27 10 0
14 -6 11 -15z m-3257 -5 c0 -5 -4 -10 -10 -10 -5 0 -10 5 -10 10 0 6 5 10 10
10 6 0 10 -4 10 -10z m485 -1 c11 -17 0 -20 -21 -4 -17 13 -17 14 -2 15 9 0
20 -5 23 -11z m74 -12 c0 -8 -2 -8 -6 1 -4 10 -8 10 -19 1 -9 -7 -14 -8 -14
-1 0 12 21 22 33 15 4 -2 7 -10 6 -16z m2761 -15 c0 -21 -2 -24 -10 -12 -13
20 -13 53 0 45 6 -3 10 -18 10 -33z m-3541 7 c-22 -13 -31 -11 -17 5 7 8 17
12 22 9 4 -3 2 -9 -5 -14z m245 6 c-4 -8 -11 -15 -16 -15 -6 0 -5 6 2 15 7 8
14 15 16 15 2 0 1 -7 -2 -15z m76 -3 c0 -4 -9 -8 -21 -9 -17 -2 -18 1 -9 12
12 14 30 12 30 -3z m328 -4 c-11 -16 -25 -22 -54 -23 -27 0 -41 -5 -46 -17
-11 -26 -29 -22 -19 4 5 14 25 27 62 38 72 24 74 24 57 -2z m-298 2 c0 -5 -4
-10 -10 -10 -5 0 -10 5 -10 10 0 6 5 10 10 10 6 0 10 -4 10 -10z m2783 3 c4
-3 1 -13 -5 -21 -7 -8 -18 -33 -25 -56 -6 -23 -27 -85 -46 -138 -19 -54 -33
-98 -30 -98 2 0 1 -5 -3 -12 -4 -7 -9 -26 -11 -43 -4 -40 -12 -59 -20 -51 -10
10 -12 76 -2 76 5 0 9 12 8 28 -1 15 6 47 16 72 9 25 18 52 20 60 6 29 37 100
44 100 4 0 13 20 20 45 13 44 20 52 34 38z m174 -15 c-3 -8 -6 -5 -6 6 -1 11
2 17 5 13 3 -3 4 -12 1 -19z m-2623 3 c3 -5 -1 -11 -9 -14 -9 -4 -12 -1 -8 9
6 16 10 17 17 5z m-310 -74 c-17 -26 -29 -37 -32 -28 -2 7 1 17 9 21 17 11 21
42 6 53 -8 6 -6 7 6 3 11 -4 20 1 25 12 6 16 7 16 10 -1 2 -10 -9 -37 -24 -60z
m-224 53 c0 -5 -5 -10 -11 -10 -5 0 -7 5 -4 10 3 6 8 10 11 10 2 0 4 -4 4 -10z
m652 -40 c4 -3 3 -12 -2 -20 -8 -13 -10 -12 -10 3 0 9 -7 17 -16 17 -8 0 -12
4 -9 10 3 6 -1 7 -9 4 -21 -8 -20 6 2 22 15 11 18 10 27 -9 5 -12 13 -24 17
-27z m-872 36 c0 -3 -4 -8 -10 -11 -5 -3 -10 -1 -10 4 0 6 5 11 10 11 6 0 10
-2 10 -4z m360 -5 c0 -6 -4 -13 -10 -16 -5 -3 -10 1 -10 9 0 9 5 16 10 16 6 0
10 -4 10 -9z m335 -1 c3 -5 16 -10 28 -11 l22 0 -23 -11 c-17 -8 -21 -17 -16
-32 6 -20 6 -20 -13 -3 -11 9 -25 17 -32 17 -7 0 -9 5 -6 10 4 6 12 9 19 8 6
-2 11 2 11 7 0 6 -3 9 -7 8 -5 -2 -8 2 -8 7 0 6 4 10 9 10 6 0 13 -4 16 -10z
m255 0 c0 -5 -7 -10 -16 -10 -8 0 -12 5 -9 10 3 6 10 10 16 10 5 0 9 -4 9 -10z
m2519 -46 c-7 -27 -14 -43 -16 -37 -5 14 16 97 23 90 3 -2 -1 -26 -7 -53z
m-3299 42 c0 -3 -4 -8 -10 -11 -5 -3 -10 -1 -10 4 0 6 5 11 10 11 6 0 10 -2
10 -4z m480 -6 c0 -5 -2 -10 -4 -10 -3 0 -8 5 -11 10 -3 6 -1 10 4 10 6 0 11
-4 11 -10z m2950 -132 c9 -75 7 -149 -6 -187 -4 -11 -7 -10 -18 4 -7 10 -18
15 -24 11 -15 -9 -15 -1 -2 25 21 37 30 181 18 254 l-7 40 14 -31 c8 -18 19
-70 25 -116z m147 120 c-3 -8 -6 -5 -6 6 -1 11 2 17 5 13 3 -3 4 -12 1 -19z
m-2953 -3 c-4 -8 -1 -15 5 -15 6 0 11 -11 11 -25 0 -25 13 -31 63 -26 9 1 17
-3 17 -10 0 -19 -53 -59 -80 -60 -14 0 -36 -2 -50 -4 -14 -1 -29 1 -35 5 -5 5
-16 1 -24 -7 -12 -13 -11 -14 8 -8 12 3 21 2 21 -4 0 -5 8 -11 18 -14 9 -2 1
-3 -18 -2 -71 5 -102 27 -60 40 11 3 20 11 20 17 0 7 -5 6 -14 -1 -9 -7 -17
-8 -20 -2 -8 13 3 38 19 45 9 3 12 0 8 -9 -4 -12 0 -13 27 -4 17 6 34 9 37 5
7 -7 43 38 43 54 0 6 -8 10 -17 8 -10 -2 -17 -11 -17 -21 2 -20 -7 -22 -24 -5
-18 18 -14 38 7 38 11 0 23 5 26 10 10 16 35 12 29 -5z m257 -9 c-8 -10 -9
-16 -1 -21 5 -3 7 -18 4 -33 -7 -30 -24 -54 -24 -34 0 7 -4 12 -10 12 -5 0 -7
-7 -4 -15 7 -17 -13 -20 -35 -6 -13 9 -23 61 -11 58 8 -2 64 36 73 51 5 7 11
11 14 8 3 -3 0 -12 -6 -20z m-1041 4 c0 -5 8 -6 18 -3 16 6 16 6 0 -10 -18
-19 -33 -23 -23 -7 3 6 -1 10 -10 10 -9 0 -13 5 -10 10 8 13 25 13 25 0z m370
-10 c0 -5 -7 -7 -15 -4 -8 4 -15 8 -15 10 0 2 7 4 15 4 8 0 15 -4 15 -10z
m188 -10 c-7 -11 -16 -20 -20 -20 -11 0 -10 9 5 25 18 21 29 18 15 -5z m1232
10 c0 -5 -5 -10 -11 -10 -5 0 -7 5 -4 10 3 6 8 10 11 10 2 0 4 -4 4 -10z
m1942 -78 c-5 -43 -8 -39 -16 28 -6 49 -5 52 6 30 8 -14 12 -40 10 -58z
m-3146 41 c-10 -10 -19 5 -10 18 6 11 8 11 12 0 2 -7 1 -15 -2 -18z m1139 7
c-3 -5 -12 -10 -18 -10 -7 0 -6 4 3 10 19 12 23 12 15 0z m-1245 -36 c0 -2 -7
-4 -15 -4 -8 0 -15 4 -15 10 0 5 7 7 15 4 8 -4 15 -8 15 -10z m114 10 c9 -3
16 -11 16 -17 0 -8 -3 -8 -11 0 -6 6 -17 9 -24 7 -7 -3 -16 -1 -20 5 -7 12 14
15 39 5z m336 -14 c8 -5 11 -13 6 -17 -5 -4 -11 -2 -13 5 -3 6 -9 10 -14 6 -5
-3 -9 0 -9 5 0 13 10 14 30 1z m940 7 c0 -2 -10 -12 -21 -23 -22 -19 -22 -19
-8 4 12 19 29 30 29 19z m2022 -32 c3 -13 1 -22 -3 -19 -9 5 -13 44 -5 44 2 0
6 -11 8 -25z m-2282 5 c0 -5 -4 -10 -10 -10 -5 0 -10 5 -10 10 0 6 5 10 10 10
6 0 10 -4 10 -10z m210 6 c0 -3 -4 -8 -10 -11 -5 -3 -10 -1 -10 4 0 6 5 11 10
11 6 0 10 -2 10 -4z m-1830 -16 c0 -5 -2 -10 -4 -10 -3 0 -8 5 -11 10 -3 6 -1
10 4 10 6 0 11 -4 11 -10z m640 -8 c0 -11 -11 -24 -25 -30 -31 -14 -31 -10 -2
22 28 30 27 30 27 8z m868 -6 c-7 -8 -15 -12 -17 -11 -5 6 10 25 20 25 5 0 4
-6 -3 -14z m215 -31 c-7 -21 -13 -19 -13 6 0 11 4 18 10 14 5 -3 7 -12 3 -20z
m-1222 -8 c-10 -9 -11 -8 -5 6 3 10 9 15 12 12 3 -3 0 -11 -7 -18z m1393 7 c3
-8 2 -12 -4 -9 -6 3 -10 10 -10 16 0 14 7 11 14 -7z m1853 -36 c-2 -13 -4 -5
-4 17 -1 22 1 32 4 23 2 -10 2 -28 0 -40z m-3627 27 c0 -12 -19 -12 -23 0 -4
9 -1 12 9 8 7 -3 14 -7 14 -8z m460 -10 c0 -23 -18 -27 -29 -7 -6 11 -8 22 -5
25 10 9 34 -4 34 -18z m917 7 c0 -10 -9 -19 -20 -19 -18 -2 -18 -1 -2 18 22
23 24 24 22 1z m-1087 -2 c0 -15 -40 -32 -58 -25 -13 6 -9 10 18 20 19 8 36
14 38 14 1 1 2 -3 2 -9z m660 0 c0 -5 -4 -10 -10 -10 -5 0 -10 5 -10 10 0 6 5
10 10 10 6 0 10 -4 10 -10z m2250 -4 c0 -3 -4 -8 -10 -11 -5 -3 -10 -1 -10 4
0 6 5 11 10 11 6 0 10 -2 10 -4z m-1134 -23 c-4 -9 -1 -20 5 -24 8 -4 5 -13
-10 -28 -20 -20 -21 -20 -21 -2 0 24 17 71 26 71 3 0 3 -8 0 -17z m-1432 -8
c-4 -8 -11 -15 -16 -15 -6 0 -5 6 2 15 7 8 14 15 16 15 2 0 1 -7 -2 -15z m656
5 c0 -5 -5 -10 -11 -10 -5 0 -7 5 -4 10 3 6 8 10 11 10 2 0 4 -4 4 -10z m2482
-12 c-7 -7 -12 -8 -12 -2 0 14 12 26 19 19 2 -3 -1 -11 -7 -17z m-3462 2 c0
-5 -5 -10 -11 -10 -5 0 -7 5 -4 10 3 6 8 10 11 10 2 0 4 -4 4 -10z m455 -20
c-3 -5 -11 -10 -16 -10 -6 0 -7 5 -4 10 3 6 11 10 16 10 6 0 7 -4 4 -10z
m2439 -5 c-4 -8 -11 -15 -16 -15 -6 0 -5 6 2 15 7 8 14 15 16 15 2 0 1 -7 -2
-15z m-1372 -41 c-8 -14 -9 -13 -9 10 0 18 3 24 9 18 7 -7 7 -16 0 -28z m128
16 l25 -20 -40 -35 c-22 -19 -39 -41 -37 -48 2 -8 0 -9 -6 -2 -14 13 6 125 21
125 7 0 23 -9 37 -20z m-1553 4 c-3 -3 -12 -4 -19 -1 -8 3 -5 6 6 6 11 1 17
-2 13 -5z m719 -21 c-6 -6 -36 9 -36 18 0 5 9 4 20 -3 10 -7 18 -14 16 -15z
m-654 -5 c-7 -7 -12 -8 -12 -2 0 14 12 26 19 19 2 -3 -1 -11 -7 -17z m1018 -8
c0 -10 -4 -21 -9 -24 -5 -4 -7 3 -4 14 3 12 0 20 -6 20 -7 0 -9 5 -6 10 9 15
25 2 25 -20z m-1680 10 c0 -5 -2 -10 -4 -10 -3 0 -8 5 -11 10 -3 6 -1 10 4 10
6 0 11 -4 11 -10z m775 0 c3 -6 -4 -10 -17 -10 -18 0 -20 2 -8 10 19 12 18 12
25 0z m710 -10 c3 -5 1 -10 -4 -10 -6 0 -11 5 -11 10 0 6 2 10 4 10 3 0 8 -4
11 -10z m90 0 c3 -5 1 -10 -4 -10 -6 0 -11 5 -11 10 0 6 2 10 4 10 3 0 8 -4
11 -10z m-725 -15 c-7 -9 -15 -13 -19 -10 -3 3 1 10 9 15 21 14 24 12 10 -5z
m101 2 c-6 -8 -7 -18 -3 -23 4 -4 -1 -2 -10 5 -24 18 -23 31 3 31 17 0 19 -3
10 -13z m-991 -17 c-24 -15 -36 -11 -14 4 10 8 21 12 24 10 2 -3 -2 -9 -10
-14z m914 -16 c4 -9 4 -19 1 -22 -3 -3 -5 0 -5 6 0 7 -7 12 -16 12 -8 0 -12 5
-9 10 9 15 22 12 29 -6z m698 -6 c-7 -7 -12 -8 -12 -2 0 14 12 26 19 19 2 -3
-1 -11 -7 -17z m-1017 -8 c-3 -5 -12 -10 -18 -10 -7 0 -6 4 3 10 19 12 23 12
15 0z m980 -9 c-3 -6 -11 -11 -17 -11 -6 0 -6 6 2 15 14 17 26 13 15 -4z m843
-4 c4 5 18 9 32 8 21 -1 26 -9 33 -43 5 -25 14 -42 22 -42 8 0 16 -4 20 -10
17 -27 -63 19 -108 63 -29 27 -42 41 -29 31 15 -12 26 -15 30 -7z m-1390 -5
c-10 -2 -18 -8 -18 -13 0 -5 -5 -9 -12 -9 -6 0 -3 8 7 20 10 11 23 16 29 12 7
-4 5 -8 -6 -10z m56 -3 c-3 -5 -10 -7 -15 -3 -5 3 -7 10 -3 15 3 5 10 7 15 3
5 -3 7 -10 3 -15z m76 11 c0 -5 -5 -10 -11 -10 -5 0 -7 5 -4 10 3 6 8 10 11
10 2 0 4 -4 4 -10z m377 -12 c-3 -8 -6 -5 -6 6 -1 11 2 17 5 13 3 -3 4 -12 1
-19z m-1420 -20 c-3 -8 -6 -5 -6 6 -1 11 2 17 5 13 3 -3 4 -12 1 -19z m3537
-63 c-14 -22 -14 -25 4 -36 16 -10 18 -17 10 -43 -11 -38 -27 -118 -34 -170
-5 -39 -34 -95 -34 -65 0 8 5 20 11 26 8 8 5 16 -10 30 -17 16 -19 24 -11 53
15 59 35 164 33 179 -1 8 5 21 14 29 13 13 12 18 -11 39 -15 13 -24 29 -20 35
4 6 18 -3 35 -22 27 -29 28 -32 13 -55z m-1818 62 c4 -3 -1 -14 -10 -23 -10
-9 -15 -22 -12 -30 3 -7 -2 -18 -11 -26 -14 -11 -16 -10 -11 9 7 27 -7 39 -26
24 -7 -6 -21 -8 -31 -5 -10 4 -21 1 -26 -7 -7 -12 -9 -12 -9 0 0 8 12 27 26
42 21 22 34 27 65 25 22 -2 42 -6 45 -9z m-781 -7 c-3 -5 -12 -10 -20 -10 -8
0 -19 -8 -25 -17 -8 -12 -10 -13 -7 -3 2 8 14 21 28 27 29 15 32 16 24 3z
m345 0 c0 -5 -5 -10 -11 -10 -5 0 -7 5 -4 10 3 6 8 10 11 10 2 0 4 -4 4 -10z
m645 0 c3 -5 2 -10 -4 -10 -5 0 -13 5 -16 10 -3 6 -2 10 4 10 5 0 13 -4 16
-10z m-1415 -4 c0 -3 -4 -8 -10 -11 -5 -3 -10 -1 -10 4 0 6 5 11 10 11 6 0 10
-2 10 -4z m2537 -18 c-3 -8 -6 -5 -6 6 -1 11 2 17 5 13 3 -3 4 -12 1 -19z
m-1707 2 c0 -5 -2 -10 -4 -10 -3 0 -8 5 -11 10 -3 6 -1 10 4 10 6 0 11 -4 11
-10z m32 -22 c-9 -9 -12 -7 -12 12 0 19 3 21 12 12 9 -9 9 -15 0 -24z m444 4
c-5 -13 -15 -19 -30 -18 -19 1 -22 4 -14 14 6 7 17 11 25 8 7 -3 13 1 13 11 0
9 3 14 6 10 3 -3 3 -14 0 -25z m-952 3 c-6 -16 -24 -21 -24 -7 0 11 11 22 21
22 5 0 6 -7 3 -15z m1126 5 c0 -5 -4 -10 -9 -10 -6 0 -13 5 -16 10 -3 6 1 10
9 10 9 0 16 -4 16 -10z m-1261 -18 c6 -12 6 -23 -1 -33 -8 -11 -9 -10 -4 5 4
13 2 17 -8 13 -10 -4 -12 0 -9 14 7 24 10 24 22 1z m95 4 c-3 -8 -15 -17 -27
-20 -28 -7 -35 0 -8 9 12 3 21 11 21 16 0 5 4 9 10 9 5 0 7 -6 4 -14z m186
-12 c0 -8 -4 -12 -10 -9 -5 3 -10 10 -10 16 0 5 5 9 10 9 6 0 10 -7 10 -16z
m940 -38 c-7 -7 -10 1 -9 25 0 32 1 33 10 10 6 -16 6 -28 -1 -35z m-1345 34
c-3 -5 -11 -10 -16 -10 -6 0 -7 5 -4 10 3 6 11 10 16 10 6 0 7 -4 4 -10z m905
-8 c0 -5 -7 -9 -15 -9 -8 0 -15 4 -15 9 0 4 7 8 15 8 8 0 15 -4 15 -8z m-130
-22 c8 -5 11 -10 5 -10 -5 0 -17 5 -25 10 -8 5 -10 10 -5 10 6 0 17 -5 25 -10z
m528 -13 c2 -9 -2 -17 -8 -17 -6 0 -8 5 -4 11 3 6 0 16 -7 21 -12 8 -11 9 1 5
8 -2 16 -11 18 -20z m-1698 -7 c0 -11 -5 -20 -11 -20 -6 0 -9 6 -6 13 3 8 -1
14 -9 14 -8 0 -14 -5 -14 -10 0 -6 -3 -8 -6 -4 -10 10 6 27 27 27 12 0 19 -7
19 -20z m587 -15 c2 -14 -1 -25 -6 -25 -6 0 -8 7 -5 15 4 8 1 15 -5 15 -6 0
-8 7 -4 15 7 20 16 11 20 -20z m1173 15 c0 -5 -4 -10 -9 -10 -5 0 -16 -3 -25
-6 -9 -3 -16 -1 -16 4 0 9 16 17 43 21 4 0 7 -3 7 -9z m-1980 -7 c0 -17 -18
-35 -29 -29 -8 5 -7 11 2 21 13 16 27 19 27 8z m1434 -9 c3 -8 2 -12 -4 -9 -6
3 -10 10 -10 16 0 14 7 11 14 -7z m146 7 c0 -5 -7 -12 -16 -15 -14 -5 -15 -4
-4 9 14 17 20 19 20 6z m-1280 -11 c0 -5 -4 -10 -10 -10 -5 0 -10 5 -10 10 0
6 5 10 10 10 6 0 10 -4 10 -10z m-126 -6 c20 -8 21 -20 2 -27 -8 -3 -22 3 -32
14 -15 17 -15 19 -1 19 8 0 22 -3 31 -6z m2276 2 c0 -2 -7 -6 -15 -10 -8 -3
-15 -1 -15 4 0 6 7 10 15 10 8 0 15 -2 15 -4z m-2430 -21 c0 -8 -4 -15 -10
-15 -5 0 -7 7 -4 15 4 8 8 15 10 15 2 0 4 -7 4 -15z m855 5 c3 -5 -1 -10 -10
-10 -9 0 -13 5 -10 10 3 6 8 10 10 10 2 0 7 -4 10 -10z m630 -18 c-8 -8 -25
10 -19 20 4 6 9 5 15 -3 4 -7 6 -15 4 -17z m425 18 c0 -5 -5 -10 -11 -10 -5 0
-7 5 -4 10 3 6 8 10 11 10 2 0 4 -4 4 -10z m-2040 -4 c0 -2 -7 -9 -15 -16 -13
-11 -14 -10 -9 4 5 14 24 23 24 12z m1870 -17 c0 -6 -4 -7 -10 -4 -5 3 -10 11
-10 16 0 6 5 7 10 4 6 -3 10 -11 10 -16z m2837 -1 c-3 -8 -6 -5 -6 6 -1 11 2
17 5 13 3 -3 4 -12 1 -19z m-4690 -24 c2 -6 -3 -11 -12 -11 -8 0 -15 7 -15 15
0 15 22 12 27 -4z m98 6 c3 -5 2 -10 -4 -10 -5 0 -13 5 -16 10 -3 6 -2 10 4
10 5 0 13 -4 16 -10z m475 6 c0 -3 -4 -8 -10 -11 -5 -3 -10 -1 -10 4 0 6 5 11
10 11 6 0 10 -2 10 -4z m1436 -23 c-10 -10 -19 5 -10 18 6 11 8 11 12 0 2 -7
1 -15 -2 -18z m-1802 2 c-15 -12 -16 -14 -3 -15 9 0 16 -7 16 -14 0 -11 -5
-13 -19 -5 -10 5 -18 13 -18 17 0 11 22 32 34 32 5 0 1 -7 -10 -15z m166 5 c0
-5 -4 -10 -10 -10 -5 0 -10 5 -10 10 0 6 5 10 10 10 6 0 10 -4 10 -10z m-292
-25 c-3 -3 -9 2 -12 12 -6 14 -5 15 5 6 7 -7 10 -15 7 -18z m1822 15 c0 -5 -2
-10 -4 -10 -3 0 -8 5 -11 10 -3 6 -1 10 4 10 6 0 11 -4 11 -10z m-1480 -4 c0
-3 -4 -8 -10 -11 -5 -3 -10 -1 -10 4 0 6 5 11 10 11 6 0 10 -2 10 -4z m555 -6
c3 -5 1 -10 -4 -10 -6 0 -11 5 -11 10 0 6 2 10 4 10 3 0 8 -4 11 -10z m810 -8
c-3 -3 -11 0 -18 7 -9 10 -8 11 6 5 10 -3 15 -9 12 -12z m742 -4 c-3 -8 -6 -5
-6 6 -1 11 2 17 5 13 3 -3 4 -12 1 -19z m-2482 -8 c-5 -15 -3 -18 9 -14 19 7
22 -12 4 -20 -10 -5 -10 -7 0 -12 6 -3 12 -19 12 -35 0 -18 -4 -28 -10 -24 -6
4 -8 10 -5 15 10 16 -6 39 -22 33 -11 -4 -14 -2 -9 5 3 6 -2 15 -11 21 -10 5
-14 13 -10 17 4 4 14 -1 22 -12 14 -18 14 -17 9 14 -5 21 -3 32 5 32 8 0 10
-8 6 -20z m92 3 c-9 -9 -20 -13 -24 -9 -4 4 -1 11 7 16 25 16 35 11 17 -7z
m1793 7 c0 -5 -5 -10 -11 -10 -5 0 -7 5 -4 10 3 6 8 10 11 10 2 0 4 -4 4 -10z
m2767 -22 c-3 -7 -5 -2 -5 12 0 14 2 19 5 13 2 -7 2 -19 0 -25z m-3225 -10
c-8 -8 -9 -4 -5 13 4 13 8 18 11 10 2 -7 -1 -18 -6 -23z m106 -4 c1 -1 -4 -7
-13 -14 -13 -11 -14 -10 -10 3 8 20 -15 34 -26 16 -7 -11 -9 -11 -9 2 0 26 12
30 34 12 12 -10 22 -18 24 -19z m-1397 -4 c5 0 9 -5 9 -10 0 -6 -7 -6 -19 2
-12 7 -17 18 -13 27 6 14 7 14 10 -1 2 -10 8 -18 13 -18z m827 16 c-7 -8 -17
-12 -22 -9 -4 3 -2 9 5 14 22 13 31 11 17 -5z m607 4 c3 -5 1 -10 -4 -10 -6 0
-11 5 -11 10 0 6 2 10 4 10 3 0 8 -4 11 -10z m-553 -25 c3 -13 1 -22 -3 -19
-9 5 -13 44 -5 44 2 0 6 -11 8 -25z m1452 -19 c-3 -21 -8 -35 -11 -32 -2 2 -1
20 3 40 3 21 8 35 11 32 2 -2 1 -20 -3 -40z m-2154 18 c0 -2 -9 -4 -21 -4 -11
0 -18 4 -14 10 5 8 35 3 35 -6z m65 6 c3 -5 1 -10 -4 -10 -6 0 -11 5 -11 10 0
6 2 10 4 10 3 0 8 -4 11 -10z m-435 -10 c0 -5 -2 -10 -4 -10 -3 0 -8 5 -11 10
-3 6 -1 10 4 10 6 0 11 -4 11 -10z m230 0 c0 -5 -4 -10 -10 -10 -5 0 -10 5
-10 10 0 6 5 10 10 10 6 0 10 -4 10 -10z m910 -11 c-7 -11 -14 -19 -16 -16 -7
7 7 37 17 37 6 0 5 -9 -1 -21z m3500 11 c0 -5 -2 -10 -4 -10 -3 0 -8 5 -11 10
-3 6 -1 10 4 10 6 0 11 -4 11 -10z m-2913 -35 c-23 -22 -33 -18 -12 5 10 11
20 18 23 16 2 -3 -3 -12 -11 -21z m-1467 11 c0 -11 -19 -15 -25 -6 -3 5 1 10
9 10 9 0 16 -2 16 -4z m760 -12 c0 -8 -4 -12 -10 -9 -5 3 -10 1 -10 -4 0 -6
-5 -11 -12 -11 -6 0 -3 9 7 20 22 24 25 25 25 4z m2552 1 c0 -6 -3 -27 -6 -47
-5 -29 -11 -38 -26 -38 -11 0 -20 3 -20 8 0 4 -3 17 -6 30 -5 17 -2 22 12 22
9 0 15 3 11 6 -7 8 15 34 26 31 5 -1 9 -7 9 -12z m1145 -37 c-2 -13 -4 -5 -4
17 -1 22 1 32 4 23 2 -10 2 -28 0 -40z m-4692 32 c3 -5 1 -10 -4 -10 -6 0 -11
5 -11 10 0 6 2 10 4 10 3 0 8 -4 11 -10z m1576 -12 c11 -21 11 -22 -4 -9 -10
7 -17 17 -17 22 0 15 9 10 21 -13z m-1111 2 c17 -10 14 -15 -17 -24 -18 -6
-20 -4 -16 14 6 22 11 24 33 10z m-70 -21 c0 -4 -7 -6 -15 -3 -8 4 -15 10 -15
15 0 4 7 6 15 3 8 -4 15 -10 15 -15z m465 11 c3 -5 -1 -10 -9 -10 -9 0 -16 5
-16 10 0 6 4 10 9 10 6 0 13 -4 16 -10z m1623 -39 c-2 -30 0 -37 9 -30 8 8 10
5 6 -10 -13 -49 -35 -11 -26 43 8 48 16 46 11 -3z m215 8 c4 -16 3 -18 -9 -8
-16 13 -19 29 -5 29 5 0 11 -9 14 -21z m-2318 -9 c3 -5 1 -10 -4 -10 -6 0 -11
5 -11 10 0 6 2 10 4 10 3 0 8 -4 11 -10z m869 -6 c3 -8 2 -12 -4 -9 -6 3 -10
10 -10 16 0 14 7 11 14 -7z m546 6 c0 -5 -5 -10 -11 -10 -5 0 -7 5 -4 10 3 6
8 10 11 10 2 0 4 -4 4 -10z m-1440 -10 c0 -5 -7 -7 -15 -4 -8 4 -15 8 -15 10
0 2 7 4 15 4 8 0 15 -4 15 -10z m135 0 c3 -5 -1 -10 -9 -10 -9 0 -16 5 -16 10
0 6 4 10 9 10 6 0 13 -4 16 -10z m470 -8 c-3 -3 -11 0 -18 7 -9 10 -8 11 6 5
10 -3 15 -9 12 -12z m1623 -13 c-3 -8 -7 -3 -11 10 -4 17 -3 21 5 13 5 -5 8
-16 6 -23z m112 -11 c0 -16 -3 -17 -21 -7 -16 8 -18 13 -9 19 8 5 9 13 4 21
-6 12 -5 12 9 0 9 -7 17 -22 17 -33z m2037 -358 c0 -60 -1 -64 -4 -20 -2 30
-10 124 -18 209 -8 85 -14 168 -14 185 3 60 37 -300 36 -374z m70 378 c-3 -8
-6 -5 -6 6 -1 11 2 17 5 13 3 -3 4 -12 1 -19z m-3816 -15 c-12 -20 -14 -14 -5
12 4 9 9 14 11 11 3 -2 0 -13 -6 -23z m2496 8 c12 -20 8 -31 -13 -31 -14 0
-27 28 -18 41 8 14 18 11 31 -10z m123 7 c0 -4 -7 -8 -15 -8 -8 0 -15 4 -15 8
0 5 7 9 15 9 8 0 15 -4 15 -9z m-2974 -17 c0 -10 -6 -17 -12 -14 -7 2 -15 0
-19 -6 -3 -6 -10 -11 -16 -11 -17 0 -9 15 19 32 15 10 27 18 27 18 1 0 1 -8 1
-19z m984 9 c0 -5 -4 -10 -10 -10 -5 0 -10 5 -10 10 0 6 5 10 10 10 6 0 10 -4
10 -10z m-1660 -20 c0 -5 -2 -10 -4 -10 -3 0 -8 5 -11 10 -3 6 -1 10 4 10 6 0
11 -4 11 -10z m2937 -4 c-3 -8 -1 -16 5 -18 6 -2 5 -8 -3 -15 -11 -9 -14 -5
-16 18 -1 16 3 29 8 29 6 0 9 -6 6 -14z m-2577 0 c0 -3 -4 -8 -10 -11 -5 -3
-10 -1 -10 4 0 6 5 11 10 11 6 0 10 -2 10 -4z m2168 -64 c14 -21 14 -25 -3
-40 -18 -16 -18 -16 -6 0 11 15 11 22 -3 43 -9 13 -15 32 -15 42 1 16 2 15 6
-2 3 -10 12 -30 21 -43z m-2148 38 c0 -5 -5 -10 -11 -10 -5 0 -7 5 -4 10 3 6
8 10 11 10 2 0 4 -4 4 -10z m-325 -10 c-3 -5 -12 -10 -18 -10 -7 0 -6 4 3 10
19 12 23 12 15 0z m1691 -17 c-7 -7 -26 7 -26 19 0 6 6 6 15 -2 9 -7 13 -15
11 -17z m1911 -14 c-6 -5 -6 -17 0 -35 10 -32 6 -74 -7 -74 -14 0 -21 17 -22
50 -1 17 -5 30 -10 30 -4 0 -8 7 -8 15 0 8 9 15 20 15 14 0 20 7 21 23 0 21 1
21 8 2 5 -12 4 -23 -2 -26z m-3182 21 c6 -1 -1 -6 -14 -11 -29 -12 -64 -3 -42
10 8 5 21 7 30 6 9 -2 21 -4 26 -5z m68 -24 c-10 -13 -19 -23 -21 -21 -7 6 19
45 29 45 5 0 2 -11 -8 -24z m3043 11 c18 7 18 6 0 -12 -14 -14 -21 -16 -24 -7
-2 6 -10 12 -18 12 -9 0 -12 5 -9 10 5 8 11 8 20 0 7 -6 21 -7 31 -3z m-2565
-29 c8 -15 8 -19 0 -14 -6 4 -11 2 -11 -4 0 -6 -5 -8 -12 -4 -9 6 -9 9 0 12
17 5 15 22 -4 22 -8 0 -12 5 -9 10 8 13 22 5 36 -22z m1476 0 c-3 -8 -6 -5 -6
6 -1 11 2 17 5 13 3 -3 4 -12 1 -19z m-1437 3 c0 -6 -4 -13 -10 -16 -5 -3 -10
1 -10 9 0 9 5 16 10 16 6 0 10 -4 10 -9z m3424 0 c3 -5 -1 -11 -9 -15 -9 -3
-15 0 -15 9 0 16 16 20 24 6z m-3559 -22 c-4 -5 -12 -9 -18 -8 -9 0 -8 2 1 6
6 2 9 10 6 15 -4 7 -2 8 5 4 6 -4 9 -12 6 -17z m1036 -3 c-7 -8 -9 -21 -5 -28
5 -10 4 -10 -5 -2 -10 9 -10 16 0 32 7 12 15 19 18 17 2 -3 -2 -11 -8 -19z
m-1381 4 c0 -5 -9 -10 -20 -10 -11 0 -20 5 -20 10 0 6 9 10 20 10 11 0 20 -4
20 -10z m90 0 c0 -5 -5 -10 -11 -10 -5 0 -7 -4 -4 -10 3 -5 2 -10 -4 -10 -5 0
-18 -3 -28 -7 -14 -5 -12 0 7 19 27 28 40 34 40 18z m1899 -35 c0 -5 -4 -3 -9
5 -5 8 -9 22 -9 30 0 16 17 -16 18 -35z m-2044 25 c3 -5 1 -10 -4 -10 -6 0
-11 5 -11 10 0 6 2 10 4 10 3 0 8 -4 11 -10z m-165 -8 c0 -4 -9 -8 -20 -9 -11
-1 -18 2 -15 8 7 11 35 12 35 1z m2560 -7 c0 -8 -2 -15 -4 -15 -2 0 -6 7 -10
15 -3 8 -1 15 4 15 6 0 10 -7 10 -15z m30 5 c0 -5 -2 -10 -4 -10 -3 0 -8 5
-11 10 -3 6 -1 10 4 10 6 0 11 -4 11 -10z m1540 -3 c0 -7 -9 -18 -20 -25 -22
-14 -25 -9 -10 19 12 21 30 26 30 6z m-3999 -20 c-10 -9 -11 -8 -5 6 3 10 9
15 12 12 3 -3 0 -11 -7 -18z m169 -7 c0 -5 -4 -10 -10 -10 -5 0 -10 5 -10 10
0 6 5 10 10 10 6 0 10 -4 10 -10z m1827 -12 c-3 -8 -6 -5 -6 6 -1 11 2 17 5
13 3 -3 4 -12 1 -19z m438 1 c11 -16 2 -17 -25 -2 -24 12 -24 13 -3 13 12 0
25 -5 28 -11z m1555 -24 c-7 -8 -16 -15 -21 -15 -5 0 -1 8 9 18 20 22 31 19
12 -3z m-3430 11 c0 -3 -4 -8 -10 -11 -5 -3 -10 -1 -10 4 0 6 5 11 10 11 6 0
10 -2 10 -4z m-730 -56 c0 -5 -5 -10 -11 -10 -5 0 -7 5 -4 10 3 6 8 10 11 10
2 0 4 -4 4 -10z m280 -1 c0 -5 4 -8 9 -5 5 3 11 -1 15 -9 7 -18 -15 -20 -32
-3 -15 15 -16 28 -2 28 6 0 10 -5 10 -11z m550 -9 c0 -5 -5 -12 -12 -16 -7 -5
-8 -3 -3 6 5 9 2 10 -14 5 -22 -7 -30 10 -8 18 15 5 37 -2 37 -13z m-170 -5
c0 -9 -6 -12 -15 -9 -8 4 -15 10 -15 15 0 5 7 9 15 9 8 0 15 -7 15 -15z m-690
-9 c0 -3 -4 -8 -10 -11 -5 -3 -10 -1 -10 4 0 6 5 11 10 11 6 0 10 -2 10 -4z
m130 -47 c0 -6 -4 -7 -10 -4 -5 3 -10 11 -10 16 0 6 5 7 10 4 6 -3 10 -11 10
-16z m630 11 c0 -5 -5 -10 -11 -10 -5 0 -7 5 -4 10 3 6 8 10 11 10 2 0 4 -4 4
-10z m-380 -22 c0 -5 -9 -6 -20 -3 -12 4 -28 1 -37 -7 -15 -12 -15 -11 -5 8 8
16 18 20 37 17 14 -3 25 -10 25 -15z m496 -15 c-7 -7 -26 7 -26 19 0 6 6 6 15
-2 9 -7 13 -15 11 -17z m-1125 -13 c6 0 7 -4 4 -10 -12 -19 -25 -10 -24 18 1
16 3 20 6 10 2 -10 9 -18 14 -18z m385 -18 c-22 -5 -30 3 -21 18 5 8 11 7 22
-2 15 -12 14 -13 -1 -16z m3852 -13 c-3 -8 -7 -3 -11 10 -4 17 -3 21 5 13 5
-5 8 -16 6 -23z m-3668 12 c0 -5 -7 -12 -16 -15 -14 -5 -15 -4 -4 9 14 17 20
19 20 6z m-200 -11 c13 -8 13 -10 -2 -10 -9 0 -20 5 -23 10 -8 13 5 13 25 0z
m1160 -6 c0 -8 -5 -12 -10 -9 -6 4 -8 11 -5 16 9 14 15 11 15 -7z m-1292 -34
c-24 -33 -36 -37 -44 -15 -4 8 -11 12 -18 8 -6 -3 -7 -2 -3 3 8 9 63 32 80 33
4 1 -2 -12 -15 -29z m367 20 c-3 -5 -10 -10 -16 -10 -5 0 -9 5 -9 10 0 6 7 10
16 10 8 0 12 -4 9 -10z m-608 -42 c-3 -8 -6 -5 -6 6 -1 11 2 17 5 13 3 -3 4
-12 1 -19z m4751 -13 c-3 -3 -9 2 -12 12 -6 14 -5 15 5 6 7 -7 10 -15 7 -18z
m-4513 -15 c-5 -16 -3 -19 11 -13 14 5 16 3 11 -11 -6 -14 -3 -16 16 -10 12 3
19 4 16 0 -4 -4 -20 -10 -36 -15 -29 -8 -30 -7 -31 22 -1 30 4 47 14 47 3 0 3
-9 -1 -20z m-92 -4 c19 -14 23 -36 7 -36 -5 0 -10 6 -10 14 0 8 -12 19 -27 24
-22 8 -23 11 -8 11 11 0 28 -6 38 -13z m-173 0 c0 -2 -7 -9 -15 -16 -13 -11
-14 -10 -9 4 5 14 24 23 24 12z m237 -13 c0 -10 -4 -23 -9 -30 -11 -14 -1 -36
13 -28 5 4 9 -1 9 -9 0 -18 16 -21 25 -6 3 6 0 10 -7 10 -21 0 14 20 36 20 18
0 17 -3 -7 -28 -31 -32 -34 -42 -12 -42 8 0 15 -4 15 -10 0 -16 -30 -12 -36 5
-4 8 -10 15 -16 15 -5 0 -6 -4 -3 -10 7 -12 -5 -13 -20 -2 -16 11 -17 132 -1
132 7 0 13 -8 13 -17z m4543 -35 c0 -29 -4 -48 -8 -41 -7 12 -4 93 4 93 2 0 4
-24 4 -52z m-4713 -4 c-8 -8 -37 21 -37 38 0 7 9 4 22 -9 12 -13 19 -25 15
-29z m79 -1 c-11 -11 -19 6 -11 24 8 17 8 17 12 0 3 -10 2 -21 -1 -24z m-26 1
c0 -8 -4 -12 -10 -9 -5 3 -10 13 -10 21 0 8 5 12 10 9 6 -3 10 -13 10 -21z
m276 11 c-23 -17 -36 -19 -36 -6 0 5 8 12 18 14 32 9 37 6 18 -8z m294 5 c0
-5 -5 -10 -11 -10 -5 0 -7 5 -4 10 3 6 8 10 11 10 2 0 4 -4 4 -10z m-35 -10
c-3 -5 -12 -10 -18 -10 -7 0 -6 4 3 10 19 12 23 12 15 0z m-35 -24 c0 -8 -5
-18 -10 -21 -6 -3 -7 -17 -4 -31 5 -20 2 -24 -15 -24 -27 0 -27 21 -1 45 12
10 18 25 16 32 -3 7 -1 13 4 13 6 0 10 -6 10 -14z m-492 -43 c-14 -18 -19 -12
-11 16 4 16 8 19 14 10 4 -7 3 -19 -3 -26z m62 23 c-15 -15 -39 -16 -33 -1 2
8 13 13 24 12 12 -1 15 -5 9 -11z m1535 -16 c3 -5 2 -10 -4 -10 -5 0 -13 5
-16 10 -3 6 -2 10 4 10 5 0 13 -4 16 -10z m-1388 -6 c-3 -3 -12 -4 -19 -1 -8
3 -5 6 6 6 11 1 17 -2 13 -5z m103 -9 c0 -8 -4 -15 -10 -15 -5 0 -10 7 -10 15
0 8 5 15 10 15 6 0 10 -7 10 -15z m2400 3 c0 -25 -12 -58 -19 -53 -10 6 -1 65
10 65 5 0 9 -6 9 -12z m-2310 -2 c0 -2 -9 -6 -20 -9 -11 -3 -20 -1 -20 4 0 5
9 9 20 9 11 0 20 -2 20 -4z m495 -6 c-3 -5 -12 -10 -18 -10 -7 0 -6 4 3 10 19
12 23 12 15 0z m905 0 c0 -5 -8 -10 -17 -10 -15 0 -16 2 -3 10 19 12 20 12 20
0z m-1920 -20 c0 -5 -4 -10 -10 -10 -5 0 -10 5 -10 10 0 6 5 10 10 10 6 0 10
-4 10 -10z m180 0 c8 -5 11 -10 5 -10 -5 0 -17 5 -25 10 -8 5 -10 10 -5 10 6
0 17 -5 25 -10z m-159 -23 c-10 -9 -11 -8 -5 6 3 10 9 15 12 12 3 -3 0 -11 -7
-18z m84 3 c3 -5 1 -10 -4 -10 -6 0 -11 5 -11 10 0 6 2 10 4 10 3 0 8 -4 11
-10z m135 -5 c0 -19 -6 -19 -14 0 -3 8 -1 15 4 15 6 0 10 -7 10 -15z m-250 -5
c0 -5 -4 -10 -10 -10 -5 0 -10 5 -10 10 0 6 5 10 10 10 6 0 10 -4 10 -10z
m1045 -1 c3 -4 -9 -9 -26 -13 -34 -6 -45 -3 -36 11 6 10 52 11 62 2z m-741
-40 c-35 -6 -36 -6 -28 14 5 13 10 14 32 4 l26 -12 -30 -6z m326 26 c0 -2 -10
-9 -22 -15 -22 -11 -22 -10 -4 4 21 17 26 19 26 11z m2195 -5 c3 -5 1 -10 -4
-10 -6 0 -11 5 -11 10 0 6 2 10 4 10 3 0 8 -4 11 -10z"/>
<path d="M490 3456 c0 -2 9 -6 20 -9 11 -3 18 -1 14 4 -5 9 -34 13 -34 5z"/>
<path d="M2815 3450 c-3 -5 -2 -10 4 -10 5 0 13 5 16 10 3 6 2 10 -4 10 -5 0
-13 -4 -16 -10z"/>
<path d="M3060 2925 c0 -9 6 -12 15 -9 8 4 12 10 9 15 -8 14 -24 10 -24 -6z"/>
<path d="M3203 2863 c-15 -31 -10 -43 16 -36 27 7 33 28 13 46 -16 14 -18 13
-29 -10z"/>
<path d="M2060 1861 c0 -5 5 -13 10 -16 6 -3 10 -2 10 4 0 5 -4 13 -10 16 -5
3 -10 2 -10 -4z"/>
<path d="M2151 1827 c-6 -8 -8 -17 -5 -20 3 -3 2 -12 -2 -19 -5 -7 -9 -17 -9
-22 0 -5 -9 -13 -20 -17 -15 -6 -12 -8 15 -6 33 2 35 4 36 38 0 19 4 41 8 47
10 16 -9 15 -23 -1z"/>
<path d="M1925 1820 c-8 -13 20 -24 36 -15 8 6 7 10 -2 16 -18 11 -26 11 -34
-1z"/>
<path d="M2096 1801 c-16 -3 -31 -13 -34 -21 -4 -12 -2 -13 9 -2 7 6 21 12 30
12 10 0 21 5 24 10 3 6 5 9 3 9 -2 -1 -16 -4 -32 -8z"/>
<path d="M1854 1782 c-10 -15 -8 -18 12 -20 13 -1 26 3 29 8 3 6 0 10 -9 10
-8 0 -16 5 -18 10 -2 6 -8 2 -14 -8z"/>
<path d="M1910 1760 c0 -5 5 -10 10 -10 6 0 10 5 10 10 0 6 -4 10 -10 10 -5 0
-10 -4 -10 -10z"/>
<path d="M1950 1759 c0 -5 5 -7 10 -4 6 3 10 8 10 11 0 2 -4 4 -10 4 -5 0 -10
-5 -10 -11z"/>
<path d="M1941 1718 c-1 -9 -9 -24 -18 -34 -16 -16 -16 -16 7 -8 14 4 33 8 43
8 9 0 17 4 17 8 0 7 -8 9 -27 7 -4 0 -10 8 -14 18 -7 16 -8 16 -8 1z"/>
<path d="M1530 1690 c-8 -5 -11 -12 -7 -16 4 -4 13 -2 19 4 15 15 7 24 -12 12z"/>
<path d="M1828 1653 c7 -3 16 -2 19 1 4 3 -2 6 -13 5 -11 0 -14 -3 -6 -6z"/>
<path d="M1405 1610 c-3 -5 -1 -10 4 -10 6 0 11 5 11 10 0 6 -2 10 -4 10 -3 0
-8 -4 -11 -10z"/>
<path d="M1320 1569 c0 -5 5 -7 10 -4 6 3 10 8 10 11 0 2 -4 4 -10 4 -5 0 -10
-5 -10 -11z"/>
<path d="M5050 2711 c0 -6 4 -13 10 -16 6 -3 7 1 4 9 -7 18 -14 21 -14 7z"/>
<path d="M705 1760 c3 -5 10 -10 16 -10 5 0 9 5 9 10 0 6 -7 10 -16 10 -8 0
-12 -4 -9 -10z"/>
<path d="M1180 1499 c0 -5 5 -7 10 -4 6 3 10 8 10 11 0 2 -4 4 -10 4 -5 0 -10
-5 -10 -11z"/>
<path d="M1811 1141 c-29 -8 -38 -26 -17 -34 7 -3 24 5 37 19 23 25 21 27 -20
15z"/>
<path d="M3600 780 c0 -5 5 -10 11 -10 5 0 7 5 4 10 -3 6 -8 10 -11 10 -2 0
-4 -4 -4 -10z"/>
<path d="M4327 4539 c6 -6 9 -19 6 -28 -5 -13 -3 -13 7 -4 15 13 7 43 -12 43
-9 0 -9 -3 -1 -11z"/>
<path d="M4390 4513 c13 -3 40 -18 58 -35 19 -16 37 -27 40 -24 3 3 3 7 1 9
-2 2 -19 15 -37 30 -20 16 -45 26 -60 26 -27 -2 -27 -2 -2 -6z"/>
<path d="M3130 4060 c0 -19 1 -19 20 -3 11 10 20 19 20 20 0 2 -9 3 -20 3 -13
0 -20 -7 -20 -20z"/>
<path d="M98 4062 c-10 -2 -18 -8 -18 -13 0 -11 11 -11 30 1 18 11 11 18 -12
12z"/>
<path d="M0 4050 c0 -5 5 -10 10 -10 6 0 10 5 10 10 0 6 -4 10 -10 10 -5 0
-10 -4 -10 -10z"/>
<path d="M2095 3950 c-3 -5 -17 -10 -30 -10 -13 0 -27 -5 -31 -12 -5 -8 9 -9
56 -5 69 8 75 10 65 26 -8 14 -52 14 -60 1z"/>
<path d="M2200 3920 c0 -5 9 -10 21 -10 11 0 17 5 14 10 -3 6 -13 10 -21 10
-8 0 -14 -4 -14 -10z"/>
<path d="M2738 3913 c-28 -7 -21 -21 7 -15 14 2 25 8 25 13 0 9 -4 10 -32 2z"/>
<path d="M4790 3696 c0 -2 7 -7 16 -10 8 -3 12 -2 9 4 -6 10 -25 14 -25 6z"/>
<path d="M4845 3690 c-19 -8 -19 -9 3 -9 12 -1 22 4 22 9 0 6 -1 10 -2 9 -2 0
-12 -4 -23 -9z"/>
<path d="M4780 3659 c0 -10 13 -14 45 -13 54 2 74 14 22 14 -19 0 -42 3 -51 6
-10 4 -16 1 -16 -7z"/>
<path d="M5068 3641 c7 -4 12 -13 10 -18 -4 -15 3 -16 31 -5 24 9 24 9 -9 20
-39 14 -50 15 -32 3z"/>
<path d="M5025 3530 c3 -4 14 -10 25 -13 11 -3 18 -2 15 3 -3 4 -14 10 -25 13
-11 3 -18 2 -15 -3z"/>
<path d="M5108 3513 c7 -3 16 -2 19 1 4 3 -2 6 -13 5 -11 0 -14 -3 -6 -6z"/>
<path d="M2036 3494 c-4 -10 -14 -14 -26 -11 -10 3 -21 0 -23 -7 -3 -8 -9 -7
-20 3 -14 11 -17 11 -17 0 0 -9 -3 -10 -8 -4 -6 9 -13 10 -48 6 -6 0 -10 -11
-9 -23 2 -21 6 -23 60 -20 47 2 56 0 51 -13 -4 -12 3 -15 33 -15 22 0 42 6 44
13 4 10 6 10 6 0 1 -9 22 -13 73 -13 86 0 86 9 0 12 -34 1 -62 6 -62 10 0 5
-10 13 -22 18 -22 8 -22 9 5 9 29 1 32 7 18 30 -13 21 -48 23 -55 5z"/>
<path d="M1460 3416 c0 -2 7 -6 15 -10 8 -3 15 -1 15 4 0 6 -7 10 -15 10 -8 0
-15 -2 -15 -4z"/>
<path d="M1818 3413 c6 -2 18 -2 25 0 6 3 1 5 -13 5 -14 0 -19 -2 -12 -5z"/>
<path d="M1883 3413 c15 -2 37 -2 50 0 12 2 0 4 -28 4 -27 0 -38 -2 -22 -4z"/>
<path d="M5076 2415 c4 -8 11 -15 16 -15 6 0 5 6 -2 15 -7 8 -14 15 -16 15 -2
0 -1 -7 2 -15z"/>
<path d="M2650 262 c0 -12 19 -26 26 -19 2 2 -2 10 -11 17 -9 8 -15 8 -15 2z"/>
<path d="M2606 228 c-10 -38 -6 -45 9 -18 17 29 18 40 6 40 -5 0 -11 -10 -15
-22z"/>
</g>
</svg>
